<?xml version="1.0" standalone="no"?>
<!DOCTYPE svg PUBLIC "-//W3C//DTD SVG 20010904//EN"
 "http://www.w3.org/TR/2001/REC-SVG-20010904/DTD/svg10.dtd">
<svg version="1.0" xmlns="http://www.w3.org/2000/svg"
 width="640.000000pt" height="640.000000pt" viewBox="0 0 640.000000 640.000000"
 preserveAspectRatio="xMidYMid meet">
<metadata>
Created by potrace 1.14, written by Peter Selinger 2001-2017
</metadata>
<g transform="translate(0.000000,640.000000) scale(0.100000,-0.100000)"
fill="#000000" stroke="none">
<path d="M147 6341 c5 -50 2 -67 -16 -102 -20 -38 -22 -51 -16 -126 8 -90 9
-88 -50 -97 -55 -8 -65 -16 -65 -52 0 -31 2 -34 31 -34 63 0 129 49 115 86 -3
8 5 19 23 28 42 22 52 39 61 105 10 70 61 151 111 177 39 19 37 34 -4 34 -21
0 -41 8 -52 20 -14 16 -31 20 -81 20 l-64 0 7 -59z"/>
<path d="M985 6383 c3 -10 9 -31 12 -48 8 -41 58 -122 107 -170 76 -75 118
-128 137 -173 13 -29 53 -79 110 -136 50 -50 100 -107 110 -126 11 -19 37 -60
59 -90 22 -30 47 -77 55 -104 8 -28 24 -59 34 -70 11 -12 55 -78 99 -148 72
-113 109 -195 126 -280 4 -16 20 -35 40 -48 27 -16 38 -33 50 -74 21 -71 20
-83 -5 -97 -33 -17 -102 -5 -173 30 -35 17 -74 31 -87 31 -14 0 -40 17 -66 42
-36 35 -47 41 -61 32 -25 -16 -28 -44 -4 -44 46 0 53 -10 46 -59 -8 -59 -26
-79 -79 -87 -35 -5 -49 -2 -72 15 -24 18 -33 19 -64 11 -46 -13 -103 -51 -107
-72 -2 -9 3 -21 10 -27 49 -42 63 -51 80 -51 10 0 18 -7 18 -15 0 -17 32 -20
61 -5 16 9 21 6 31 -15 10 -23 16 -26 47 -21 20 2 43 7 52 11 8 3 27 -4 42
-15 32 -25 36 -71 10 -124 -26 -56 -56 -59 -68 -6 -6 29 -7 29 -35 15 -16 -8
-38 -15 -50 -15 -17 0 -19 4 -14 25 5 21 3 24 -12 19 -11 -4 -24 -11 -30 -15
-29 -22 -83 15 -84 57 0 22 -26 50 -50 55 -8 2 -29 -1 -47 -5 -27 -6 -32 -12
-40 -54 -9 -52 -34 -72 -89 -72 -26 0 -33 5 -38 26 -7 27 -18 43 -48 72 -10 9
-18 24 -18 34 0 25 -43 34 -70 15 -20 -14 -28 -14 -71 -1 -61 18 -119 52 -119
68 0 20 38 49 54 43 9 -4 28 5 44 18 26 22 31 23 48 10 10 -8 36 -15 56 -15
42 0 68 27 68 70 0 15 14 44 33 66 17 21 41 56 51 76 17 35 18 39 3 55 -17 20
-53 112 -61 157 -6 34 -11 40 -26 31 -15 -9 -10 -66 9 -87 8 -10 10 -19 5 -19
-10 -2 -42 -4 -90 -7 -27 -2 -32 -7 -38 -33 -5 -28 -7 -29 -21 -15 -9 9 -15
21 -14 28 3 25 -2 34 -36 71 -20 21 -35 47 -35 61 0 34 -7 36 -70 20 -58 -15
-80 -34 -80 -68 0 -12 -7 -34 -15 -50 -8 -15 -15 -35 -15 -43 0 -8 -7 -28 -16
-45 -15 -29 -15 -34 0 -58 15 -26 14 -29 -7 -52 -13 -14 -29 -39 -36 -56 -12
-29 -68 -62 -106 -62 -27 0 -66 44 -72 83 -5 33 -2 42 23 68 16 17 46 40 66
50 21 11 38 22 38 24 0 19 -57 90 -97 120 -66 51 -79 45 -76 -35 2 -37 -4 -89
-13 -120 -39 -132 -34 -125 -76 -121 -15 2 -18 -6 -18 -39 0 -71 -74 -121
-129 -87 -44 26 -38 107 7 107 21 0 76 62 80 91 4 25 -48 79 -77 79 -9 0 -27
7 -39 16 -20 14 -22 24 -22 104 0 49 -4 92 -10 95 -7 4 -10 -236 -10 -712 l0
-718 25 -24 c14 -13 25 -34 25 -47 0 -32 -21 -74 -37 -74 -11 0 -13 -100 -13
-570 0 -474 2 -570 14 -570 7 0 40 -13 72 -30 73 -37 107 -38 156 -3 27 18 56
28 94 31 47 4 58 1 79 -18 29 -27 31 -47 11 -95 -10 -24 -26 -39 -52 -50 -20
-8 -39 -13 -42 -11 -2 3 -18 -2 -34 -10 -27 -14 -31 -13 -60 8 -22 15 -33 18
-36 10 -2 -7 -10 -12 -17 -12 -14 0 -98 -42 -119 -59 -6 -5 -23 -12 -39 -16
l-27 -7 0 -1081 c0 -594 2 -1078 4 -1076 2 2 19 42 36 89 18 47 43 103 56 125
13 22 35 72 49 110 29 77 259 532 321 635 22 36 45 76 51 90 18 42 112 139
162 167 25 15 84 50 131 78 47 28 117 68 155 89 71 37 132 96 101 96 -8 0 -18
-5 -21 -10 -4 -6 -10 -8 -15 -5 -5 3 -33 -10 -61 -30 -31 -21 -63 -35 -81 -35
-17 0 -58 -7 -92 -16 -68 -18 -219 -12 -245 9 -8 7 -16 10 -18 8 -10 -7 -54
41 -49 54 3 8 0 15 -7 18 -25 8 13 64 61 88 26 13 49 24 52 24 48 8 72 21 92
50 12 19 32 36 43 37 11 2 20 8 20 15 0 6 4 15 9 20 5 4 6 3 3 -3 -4 -7 2 -14
13 -17 15 -4 20 0 20 15 0 10 5 16 10 13 6 -4 8 -11 5 -16 -3 -5 1 -6 10 -3 9
4 21 0 28 -9 24 -31 98 -60 158 -63 32 -1 57 2 54 6 -8 13 92 53 122 47 62
-11 77 -17 102 -40 17 -16 39 -25 64 -25 37 -1 38 -1 32 27 -3 17 -2 32 5 36
5 3 8 11 5 16 -8 12 12 31 48 47 15 6 26 16 22 21 -3 5 5 13 17 17 33 11 41
11 56 1 6 -5 12 -6 12 -3 0 4 14 -1 30 -11 17 -9 30 -26 30 -36 0 -15 7 -17
48 -14 61 6 196 60 244 98 20 16 42 29 47 29 15 0 14 15 -3 29 -22 18 -14 54
19 92 45 51 92 44 93 -13 0 -65 -4 -61 69 -55 43 4 86 16 116 32 80 41 124 33
133 -26 4 -21 10 -39 15 -39 5 0 9 -11 9 -23 0 -20 5 -24 30 -25 39 -1 50 -9
50 -35 1 -35 24 -58 56 -55 20 2 28 -1 26 -11 -5 -25 20 -41 63 -41 35 0 44
-4 48 -21 3 -12 10 -18 16 -15 5 4 20 -7 32 -23 12 -17 26 -28 31 -25 4 3 8 0
8 -6 0 -7 8 -9 21 -5 15 5 19 4 15 -4 -4 -6 -3 -11 3 -11 6 0 16 -12 24 -26 7
-14 24 -31 37 -37 13 -7 33 -30 45 -52 13 -21 29 -41 36 -43 8 -3 21 -13 30
-24 9 -11 33 -22 57 -25 44 -6 58 -22 20 -24 -19 -1 -19 -2 -5 -6 11 -3 16
-11 13 -19 -3 -8 -2 -12 4 -9 14 9 60 -6 60 -19 0 -6 16 -11 35 -12 33 0 36 1
33 27 -2 16 0 28 5 29 29 1 37 -2 37 -17 0 -14 3 -13 20 5 24 25 55 30 46 7
-3 -9 0 -15 10 -15 8 0 14 7 12 16 -2 9 7 20 20 25 22 8 32 -4 12 -16 -6 -3
-10 -17 -10 -31 0 -15 -6 -24 -15 -24 -8 0 -15 -4 -15 -10 0 -14 -68 -12 -72
2 -3 7 -7 2 -11 -11 -5 -20 -3 -22 18 -19 17 4 22 1 17 -10 -4 -12 0 -14 17
-9 12 3 36 1 52 -3 27 -8 31 -7 26 9 -3 14 1 17 20 13 18 -3 22 -1 17 12 -4
11 -1 16 10 16 10 0 16 8 16 21 0 15 4 19 16 15 12 -4 15 -2 10 9 -3 9 0 15 9
15 8 0 15 5 15 11 0 6 -6 9 -14 6 -8 -3 -16 2 -19 14 -4 16 -1 18 19 13 13 -3
24 -2 24 4 0 5 14 12 30 14 20 3 30 0 30 -9 0 -7 5 -13 10 -13 6 0 10 7 10 15
0 20 37 39 42 23 3 -9 10 -8 22 5 10 9 24 17 32 17 8 0 14 7 14 15 0 8 5 15
11 15 5 0 7 5 4 10 -3 6 -2 10 3 10 5 0 14 -15 20 -32 5 -18 10 -25 11 -15 1
9 5 17 10 17 4 0 6 11 3 25 -3 20 0 25 16 25 14 0 26 12 39 38 14 29 24 37 45
37 14 -1 24 3 22 7 -11 17 7 27 31 18 21 -8 26 -5 39 21 12 24 12 29 2 20 -11
-9 -16 -9 -21 -1 -4 6 -14 9 -24 5 -12 -5 -13 -3 -5 5 14 14 84 21 84 9 0 -16
21 -10 51 16 16 13 35 22 42 19 8 -3 21 14 34 44 12 26 28 54 36 60 8 7 13 21
10 32 -4 14 1 21 21 26 27 6 34 20 15 26 -9 3 -9 9 -1 23 21 39 42 93 42 107
0 8 9 23 20 33 19 17 23 17 73 3 28 -9 75 -25 102 -36 28 -12 93 -33 145 -47
127 -36 200 -62 600 -216 402 -154 457 -178 635 -280 118 -67 197 -124 275
-198 78 -73 88 -77 135 -45 11 8 32 14 47 14 15 0 29 4 33 9 3 6 27 13 53 17
87 12 82 0 82 219 0 179 -1 195 -17 195 -10 0 -31 9 -48 20 -38 25 -61 25 -82
0 -21 -24 -53 -26 -95 -4 -18 10 -34 12 -40 6 -16 -16 -21 -81 -8 -111 11 -27
40 -51 40 -33 0 13 78 1 84 -13 9 -24 -18 -37 -50 -24 -42 17 -64 20 -65 9 -6
-43 -19 -58 -54 -57 -19 1 -42 -6 -52 -16 -27 -23 -64 -2 -78 44 -12 40 -80
125 -105 132 -17 4 -60 86 -60 111 1 20 93 69 130 68 64 -3 111 77 58 97 -13
5 -27 5 -33 1 -5 -4 -25 -11 -42 -15 -29 -6 -33 -4 -33 13 0 19 -3 19 -37 10
-28 -8 -50 -6 -92 6 -31 8 -70 17 -87 20 -35 6 -177 137 -189 175 -4 13 -4 43
0 67 7 49 25 64 77 64 18 0 40 4 48 10 15 9 11 15 -37 68 -7 7 -13 19 -13 25
0 7 -11 35 -24 63 -21 45 -29 52 -60 58 -50 10 -104 60 -136 128 -15 32 -39
73 -52 91 -14 18 -40 61 -57 97 -79 159 -101 198 -143 242 -34 35 -49 63 -62
108 -11 38 -30 76 -50 98 -49 56 -75 96 -91 144 -8 24 -20 53 -27 66 -15 28
-4 39 44 45 29 4 41 0 59 -19 12 -13 30 -24 38 -24 9 0 39 -8 66 -19 28 -10
71 -21 96 -25 29 -4 65 -20 95 -41 26 -19 52 -31 57 -28 5 3 21 -8 36 -24 34
-37 51 -32 51 17 0 31 -6 44 -35 69 -19 17 -35 37 -35 46 0 9 -8 19 -19 23
-27 10 -91 91 -98 123 -4 23 -11 28 -47 33 -58 8 -237 -1 -250 -14 -5 -5 -18
-10 -28 -10 -10 0 -18 -5 -18 -12 0 -6 -3 -8 -6 -5 -7 7 -44 -30 -44 -44 0 -4
5 -9 12 -11 7 -3 8 -10 2 -21 -9 -15 -12 -15 -32 -1 -12 8 -22 24 -22 35 0 10
-5 19 -11 19 -5 0 -7 5 -4 10 8 13 2 13 -29 -1 -22 -10 -32 -8 -74 20 -70 45
-111 88 -155 162 l-38 64 -9 200 c-5 110 -8 292 -7 405 l1 205 -27 53 c-15 29
-25 57 -21 63 3 6 -2 20 -13 32 -28 33 -75 105 -113 172 -43 79 -78 121 -118
147 -38 24 -76 79 -87 126 -3 17 -12 32 -19 32 -6 0 -29 9 -50 19 -28 15 -44
17 -62 11 -14 -6 -28 -9 -32 -8 -4 1 -18 -4 -30 -11 -23 -12 -23 -11 -16 11 9
30 37 52 44 35 6 -14 16 -14 43 -3 9 5 26 6 37 3 15 -4 20 0 20 16 -1 27 -33
67 -53 67 -8 0 -18 8 -21 17 -6 14 -9 15 -15 4 -7 -11 -11 -9 -20 7 -6 11 -11
29 -12 39 0 16 -1 16 -9 -2 -8 -19 -9 -19 -9 3 -1 23 -15 29 -26 11 -5 -7 -15
-3 -29 10 -20 19 -24 19 -42 6 -10 -8 -15 -15 -10 -15 23 -1 -31 -40 -55 -40
-32 0 -47 16 -30 33 22 22 13 37 -15 27 -35 -14 -39 -13 -23 6 12 15 10 16
-24 12 -33 -4 -37 -2 -37 19 0 12 -13 51 -29 85 -38 82 -54 130 -102 318 -56
218 -60 231 -91 266 -15 17 -37 57 -49 88 l-22 56 -1134 0 c-1077 0 -1135 -1
-1128 -17z m2185 -718 c-14 -17 0 -21 17 -4 12 12 53 3 53 -12 0 -5 7 -9 15
-9 8 0 15 -4 15 -10 0 -5 -6 -7 -13 -4 -8 3 -26 0 -41 -6 -26 -9 -28 -9 -23 9
4 16 0 19 -28 17 -43 -4 -62 -15 -44 -27 11 -7 10 -9 -4 -9 -11 0 -15 -4 -11
-12 4 -7 3 -8 -5 -4 -6 4 -24 1 -40 -7 -49 -24 -26 6 32 44 29 18 54 37 55 41
2 4 11 8 19 8 13 0 13 -3 3 -15z m-240 -21 c0 -3 -12 -21 -27 -41 l-27 -35 38
26 c22 14 46 26 55 26 12 0 13 -2 3 -9 -8 -4 -12 -17 -10 -27 2 -16 -3 -19
-29 -18 -18 1 -33 -2 -33 -7 0 -12 -37 -6 -52 9 -9 9 -3 20 28 47 37 33 54 42
54 29z m410 -7 c-17 -15 -70 -39 -70 -32 0 7 63 45 75 45 5 0 3 -6 -5 -13z
m60 3 c0 -5 -2 -10 -4 -10 -3 0 -8 5 -11 10 -3 6 -1 10 4 10 6 0 11 -4 11 -10z
m-253 -42 c-3 -7 -5 -2 -5 12 0 14 2 19 5 13 2 -7 2 -19 0 -25z m203 -3 c-7
-9 -15 -13 -17 -11 -7 7 7 26 19 26 6 0 6 -6 -2 -15z m160 -9 c-6 -9 -19 -12
-28 -8 -17 6 -14 7 37 21 2 1 -2 -5 -9 -13z m-504 -16 c0 -11 -4 -20 -8 -20
-4 0 -8 2 -8 4 0 2 -3 11 -6 20 -4 10 -1 16 8 16 7 0 14 -9 14 -20z m-196 -4
c0 -2 -8 -10 -17 -17 -16 -13 -17 -12 -4 4 13 16 21 21 21 13z m-109 -39 c-8
-8 -11 -7 -11 4 0 20 13 34 18 19 3 -7 -1 -17 -7 -23z m139 13 c-20 -13 -30
-12 -30 1 0 5 4 8 9 4 5 -3 13 0 16 6 4 5 10 8 13 4 4 -3 0 -10 -8 -15z m-92
-14 c-10 -7 -15 -15 -13 -18 3 -3 -1 -11 -9 -17 -10 -8 -16 -9 -21 -1 -3 5 2
10 11 10 10 0 14 3 11 7 -9 8 12 33 27 33 6 0 3 -7 -6 -14z m952 -91 c0 -8 -4
-15 -10 -15 -5 0 -7 7 -4 15 4 8 8 15 10 15 2 0 4 -7 4 -15z m-950 -175 c0 -5
-4 -10 -10 -10 -5 0 -10 5 -10 10 0 6 5 10 10 10 6 0 10 -4 10 -10z m30 -11
c0 -6 -4 -7 -10 -4 -5 3 -10 11 -10 16 0 6 5 7 10 4 6 -3 10 -11 10 -16z
m-313 -11 c-3 -8 -6 -5 -6 6 -1 11 2 17 5 13 3 -3 4 -12 1 -19z m-71 -70 c-18
-25 -21 -42 -6 -33 12 7 13 -5 2 -22 -11 -18 -72 -29 -72 -13 0 21 32 66 59
83 32 20 38 15 17 -15z m66 -15 c-4 -20 -2 -24 9 -18 8 4 7 0 -3 -10 -15 -16
-15 -20 -2 -29 9 -7 12 -18 8 -30 -5 -14 -9 -15 -15 -4 -6 10 -11 9 -22 -6 -8
-10 -20 -16 -28 -13 -10 4 -9 6 4 6 11 1 15 6 11 12 -3 6 -1 15 7 19 14 9 22
40 9 40 -9 0 -7 26 3 36 4 4 7 17 7 28 0 15 3 17 9 8 4 -7 6 -25 3 -39z m108
23 c0 -7 -9 -16 -20 -19 -23 -6 -26 3 -8 21 16 16 28 15 28 -2z m-207 -177
c-5 -19 -16 -33 -26 -35 -9 -1 -17 2 -17 7 0 5 7 9 16 9 11 0 14 6 9 20 -4 11
-2 20 4 20 6 0 10 3 10 8 -3 15 3 27 7 15 3 -6 1 -26 -3 -44z m109 19 c-2 -11
-5 -17 -6 -16 -1 2 -7 11 -15 20 -11 15 -10 17 7 15 13 -1 18 -7 14 -19z m515
-39 c33 -14 102 -18 109 -8 2 5 22 2 44 -6 23 -8 42 -10 45 -5 3 6 17 5 32 -1
15 -5 47 -12 71 -14 25 -2 49 -9 54 -17 7 -9 11 -10 14 -1 6 13 67 -9 91 -33
8 -8 19 -12 24 -9 5 4 9 -1 9 -9 0 -19 26 -21 33 -3 4 8 6 7 6 -3 2 -28 45
-58 95 -64 41 -6 110 -36 82 -36 -5 0 -3 -7 4 -15 9 -11 17 -12 31 -4 26 14
42 2 35 -27 -4 -16 -2 -24 6 -24 10 0 10 -2 1 -8 -8 -5 -4 -11 12 -18 18 -9
22 -8 19 1 -3 6 2 18 12 25 14 12 16 12 14 -5 -4 -34 0 -46 13 -43 23 4 57
-26 58 -52 0 -22 1 -23 8 -5 7 17 9 17 17 3 8 -13 11 -13 29 5 11 11 14 16 6
12 -11 -6 -13 -4 -8 7 3 9 1 20 -4 25 -6 6 -4 10 5 10 8 0 18 -12 21 -26 5
-22 85 -109 85 -93 0 17 44 -39 61 -77 26 -60 39 -119 45 -211 9 -127 34 -301
49 -346 14 -42 14 -79 -1 -209 -10 -91 -24 -109 -42 -57 l-10 27 -2 -25 c-1
-14 -2 -33 -1 -42 1 -10 -3 -18 -9 -18 -7 0 -9 -7 -6 -17 7 -17 36 -261 36
-301 0 -13 -4 -20 -10 -17 -5 3 -10 2 -10 -4 0 -5 4 -11 10 -13 17 -6 -7 -31
-32 -33 -15 -1 -22 -7 -20 -19 2 -9 -3 -16 -11 -16 -24 0 -70 -49 -63 -67 5
-13 4 -14 -9 -3 -17 14 -21 35 -4 24 7 -4 10 -1 7 7 -3 8 -12 14 -21 14 -8 0
-19 4 -23 8 -13 12 -27 8 -17 -5 19 -25 23 -47 7 -41 -7 3 -14 12 -14 20 0 10
-4 11 -17 5 -11 -7 -20 -6 -28 2 -15 15 -27 49 -15 41 6 -3 10 -2 10 3 0 17
-13 22 -28 9 -13 -9 -14 -9 -8 1 4 7 1 12 -8 12 -10 0 -13 6 -9 17 5 13 2 15
-11 10 -10 -4 -15 -3 -11 3 3 6 -1 10 -9 10 -9 0 -13 6 -10 14 3 8 1 17 -5 21
-6 3 -11 1 -11 -5 0 -6 -5 -8 -10 -5 -6 4 -8 11 -5 16 4 5 1 9 -5 9 -7 0 -29
14 -50 30 -21 17 -43 30 -49 30 -6 0 -11 5 -11 10 0 6 -6 10 -13 10 -7 0 -20
9 -30 20 -10 12 -22 18 -27 15 -6 -3 -10 -1 -10 5 0 7 -7 9 -16 6 -16 -6 -49
8 -72 31 -15 14 -32 17 -32 5 0 -4 16 -20 35 -36 22 -19 31 -32 24 -37 -8 -5
-8 -12 1 -29 16 -30 5 -89 -18 -89 -33 1 -117 -12 -146 -21 -16 -6 -30 -10
-31 -10 -2 0 -5 9 -8 20 -4 15 -10 18 -24 13 -17 -7 -17 -8 0 -11 21 -4 21 -9
3 -28 -20 -19 -26 -18 -26 8 l0 21 -24 -22 c-13 -12 -32 -21 -42 -19 -11 2
-18 -2 -16 -10 1 -8 -5 -11 -22 -6 -28 7 -41 -17 -25 -48 16 -29 4 -33 -27 -9
-15 11 -23 21 -19 21 16 0 -37 48 -66 60 -25 11 -84 9 -144 -4 -11 -2 -25 -5
-31 -5 -6 -1 -11 -12 -11 -26 0 -25 7 -31 21 -18 10 10 36 13 36 3 0 -4 -7
-13 -15 -20 -13 -11 -15 -10 -9 6 5 16 3 16 -14 -3 -23 -26 -37 -30 -28 -8 3
8 2 15 -3 15 -4 0 -8 13 -7 30 1 16 6 30 13 30 18 0 27 20 14 33 -6 6 -11 25
-11 42 0 20 -7 35 -21 43 -12 8 -18 19 -15 28 14 36 -92 2 -146 -48 -23 -21
-45 -38 -50 -38 -5 0 -6 -5 -3 -10 6 -10 -17 -40 -30 -40 -4 0 -13 -6 -20 -14
-12 -12 -12 -15 1 -20 8 -3 12 -10 9 -16 -4 -6 -10 -8 -15 -5 -4 3 -11 -6 -14
-19 -3 -13 -23 -39 -44 -58 -21 -19 -46 -46 -55 -59 l-17 -23 0 23 c0 23 -1
23 -19 7 -11 -10 -21 -13 -25 -7 -4 5 -2 12 4 16 6 4 8 11 4 16 -3 5 -10 7
-15 4 -5 -4 -9 1 -9 10 0 9 -4 13 -10 10 -5 -3 -10 0 -10 7 0 9 -3 9 -10 -2
-8 -13 -10 -13 -10 2 0 10 -6 16 -12 14 -7 -1 -10 -1 -5 1 4 3 7 13 7 24 0 16
-3 17 -19 7 -11 -7 -17 -16 -14 -22 3 -5 1 -6 -5 -2 -7 4 -12 16 -12 27 0 11
-4 17 -10 14 -6 -4 -4 -17 5 -36 9 -16 12 -35 8 -42 -4 -7 -8 -15 -8 -19 0 -3
-3 -10 -7 -14 -5 -4 -8 9 -8 29 0 19 -6 42 -14 49 -9 10 -11 20 -5 30 10 18 2
48 -13 48 -6 0 -8 11 -6 25 3 13 2 23 -1 21 -3 -2 -5 52 -3 120 3 94 0 131
-11 153 -10 20 -11 33 -5 39 6 6 7 22 3 39 -5 15 -8 31 -7 34 1 4 4 71 7 150
3 79 9 160 12 179 4 19 8 62 9 95 2 33 6 84 10 112 4 37 3 58 -6 68 -10 12
-10 19 -2 27 16 16 16 52 0 42 -8 -5 -9 -2 -5 9 4 11 1 17 -8 17 -21 0 -19 11
14 61 37 54 30 66 -11 21 -43 -49 -46 -32 -4 22 20 26 43 62 52 81 9 19 20 33
24 30 4 -3 10 2 14 10 3 8 1 15 -5 15 -5 0 1 12 15 26 13 15 22 33 19 40 -3 8
-1 14 5 14 5 0 17 16 27 36 9 19 23 38 31 41 8 3 14 10 14 17 0 19 141 152
172 162 10 3 18 11 18 17 0 12 60 17 171 17 25 -1 58 6 75 15 16 8 38 15 49
15 11 0 27 5 35 10 19 12 23 12 57 -1z m-732 -89 c12 -19 -5 -31 -27 -19 -17
9 -18 13 -7 20 18 11 26 11 34 -1z m79 -39 c3 -5 1 -23 -5 -40 -9 -25 -14 -29
-25 -20 -11 9 -14 8 -14 -2 -1 -10 -5 -8 -15 5 -19 24 -12 35 19 29 21 -4 25
-2 21 16 -4 21 9 29 19 12z m-133 -76 c0 -5 2 -29 4 -52 2 -24 0 -43 -4 -43
-15 0 -40 -56 -31 -70 8 -13 4 -58 -7 -70 -2 -2 -8 2 -13 10 -7 10 -10 11 -10
3 0 -7 -6 -13 -13 -13 -8 0 -19 -12 -25 -26 -8 -15 -17 -22 -24 -18 -9 6 -9 9
0 12 7 2 12 10 12 18 0 8 4 14 9 14 5 0 14 14 21 30 7 17 17 30 22 30 10 0 9
6 -10 83 -8 31 -7 39 4 44 9 3 13 11 10 19 -3 7 0 24 7 37 9 20 14 23 29 13
10 -6 18 -15 19 -21z m25 8 c-10 -10 -19 5 -10 18 6 11 8 11 12 0 2 -7 1 -15
-2 -18z m74 -32 c-5 -11 -15 -23 -22 -27 -7 -5 -8 -2 -3 7 21 37 44 55 25 20z
m-189 -38 c-9 -15 -10 -14 -7 7 6 35 7 37 12 23 3 -7 1 -20 -5 -30z m149 27
c0 -4 -6 -13 -14 -19 -12 -10 -17 -8 -25 7 -9 17 -7 20 14 20 14 0 25 -4 25
-8z m-434 -24 c21 -17 29 -36 35 -77 4 -30 13 -72 20 -94 23 -76 -30 -135
-103 -115 -50 14 -72 51 -64 108 3 25 13 53 21 62 21 24 19 39 -10 52 -51 23
-17 88 47 88 15 0 39 -11 54 -24z m2101 -78 c-3 -8 -6 -5 -6 6 -1 11 2 17 5
13 3 -3 4 -12 1 -19z m-1789 -16 c2 -7 -5 -16 -17 -19 -11 -3 -19 -8 -17 -12
3 -4 -4 -12 -15 -19 -24 -15 -24 -3 -1 37 17 31 42 37 50 13z m-1376 -52 c8 0
23 -9 33 -20 10 -11 24 -20 31 -20 10 0 8 -11 -7 -43 -21 -43 -22 -43 -115
-67 -91 -22 -94 -23 -138 -6 -28 11 -57 15 -74 11 -40 -8 -79 23 -64 51 23 44
52 59 116 60 79 2 72 0 100 30 15 17 30 25 40 21 8 -3 18 -2 22 4 4 7 12 5 23
-5 10 -9 24 -16 33 -16z m1451 -9 c-5 -20 -43 -61 -43 -47 0 12 34 66 41 66 4
0 5 -9 2 -19z m57 -11 c0 -5 -2 -10 -4 -10 -3 0 -8 5 -11 10 -3 6 -1 10 4 10
6 0 11 -4 11 -10z m-160 -89 c0 -5 -7 -14 -15 -21 -16 -14 -18 -10 -9 14 6 17
24 22 24 7z m-73 -83 c-3 -7 -5 -2 -5 12 0 14 2 19 5 13 2 -7 2 -19 0 -25z
m60 -633 c-4 -44 -1 -67 19 -117 18 -47 24 -77 21 -116 -3 -33 1 -59 9 -70 8
-10 13 -12 14 -4 0 13 20 17 20 3 0 -5 -13 -14 -30 -21 -16 -7 -30 -18 -31
-24 0 -6 -1 -30 -3 -52 -2 -31 1 -41 11 -37 7 3 13 -2 13 -11 0 -9 5 -16 10
-16 6 0 10 -8 10 -17 -1 -17 -1 -17 -11 0 -8 14 -14 15 -24 7 -21 -17 -29 60
-20 203 6 115 5 126 -19 193 -29 79 -32 104 -14 122 24 24 31 12 25 -43z
m2320 -37 c-3 -7 -5 -2 -5 12 0 14 2 19 5 13 2 -7 2 -19 0 -25z m-4291 -133
c10 -42 -3 -75 -30 -75 -25 0 -36 17 -36 54 0 47 55 65 66 21z m4254 -27 c0
-4 8 -4 17 -1 13 5 15 3 9 -13 -10 -26 -25 -149 -26 -205 0 -32 -6 -55 -20
-70 l-19 -24 -2 95 c-1 52 -3 115 -4 140 -1 25 3 63 8 85 8 37 10 38 23 20 8
-10 14 -22 14 -27z m-2220 -168 c0 -5 -4 -10 -10 -10 -5 0 -10 5 -10 10 0 6 5
10 10 10 6 0 10 -4 10 -10z m40 -14 c0 -18 -5 -23 -17 -21 -10 2 -20 4 -22 4
-5 1 30 41 36 41 1 0 3 -11 3 -24z m-1824 -81 c19 -14 34 -32 34 -39 0 -7 18
-36 40 -64 22 -27 40 -55 40 -61 0 -5 7 -31 16 -57 21 -62 11 -167 -20 -196
-31 -29 -124 -20 -256 26 -111 39 -145 62 -155 106 -6 28 22 101 45 115 5 3
14 23 20 44 14 52 48 100 95 133 48 34 90 32 141 -7z m1544 -94 c31 -29 40
-69 18 -75 -52 -16 -89 -14 -109 7 -30 32 -36 67 -14 84 31 22 72 16 105 -16z
m227 -3 c-3 -8 -6 -5 -6 6 -1 11 2 17 5 13 3 -3 4 -12 1 -19z m680 16 c-3 -3
-12 -4 -19 -1 -8 3 -5 6 6 6 11 1 17 -2 13 -5z m-692 -34 c3 -5 1 -10 -4 -10
-6 0 -11 5 -11 10 0 6 2 10 4 10 3 0 8 -4 11 -10z m99 -5 c-4 -8 -13 -15 -21
-15 -13 0 -13 3 -3 15 7 8 16 15 21 15 5 0 6 -7 3 -15z m730 6 c4 -5 -3 -7
-14 -4 -23 6 -26 13 -6 13 8 0 17 -4 20 -9z m-129 -70 c-7 -31 28 -86 47 -75
7 4 8 2 4 -5 -9 -13 -25 -3 -62 37 -20 23 -34 21 -34 -5 0 -8 4 -11 10 -8 7 5
-8 -32 -27 -64 -9 -14 -12 10 -5 30 7 17 5 31 -5 46 -14 21 -13 22 7 18 20 -4
22 -1 16 25 -3 17 -1 30 4 30 6 0 10 -6 11 -12 0 -7 5 0 11 16 9 25 12 26 20
12 5 -9 7 -29 3 -45z m-1355 -2 c16 -38 7 -146 -14 -167 -13 -14 -20 -14 -36
-4 -30 18 -65 -1 -106 -59 l-37 -51 -71 7 c-39 3 -79 9 -88 11 -23 7 -52 49
-68 99 -7 22 -19 48 -28 57 -13 16 -12 18 14 29 113 43 146 51 193 44 39 -5
54 -2 87 16 21 13 43 29 47 37 25 40 88 29 107 -19z m1515 41 c3 -5 1 -10 -4
-10 -6 0 -11 5 -11 10 0 6 2 10 4 10 3 0 8 -4 11 -10z m-785 -44 c0 -3 -4 -8
-10 -11 -5 -3 -10 -1 -10 4 0 6 5 11 10 11 6 0 10 -2 10 -4z m683 -43 c7 -9 5
-13 -7 -13 -11 0 -16 8 -15 28 0 15 3 21 6 12 3 -8 10 -21 16 -27z m140 20
c-4 -11 -3 -14 5 -9 16 10 15 -5 -2 -27 -8 -10 -12 -28 -10 -40 4 -21 4 -21
-6 1 -10 23 -8 62 5 82 10 16 15 12 8 -7z m-552 -50 c-12 -20 -14 -14 -5 12 4
9 9 14 11 11 3 -2 0 -13 -6 -23z m331 -75 c-6 -25 -22 -12 -22 18 0 20 2 23
13 12 8 -7 12 -20 9 -30z m-75 -10 c-3 -8 -6 -5 -6 6 -1 11 2 17 5 13 3 -3 4
-12 1 -19z m-1968 -15 c13 -9 38 -19 55 -22 25 -5 37 -18 60 -60 l29 -54 -12
-106 c-11 -99 -16 -139 -21 -151 -1 -3 -2 -9 -1 -14 1 -5 -4 -4 -11 2 -9 7
-19 7 -28 2 -12 -7 -11 -10 5 -15 11 -4 31 -11 45 -16 25 -9 118 -5 129 7 3 3
7 18 7 32 3 47 29 146 45 165 18 23 119 4 119 -23 0 -5 7 -16 16 -24 24 -25 9
-68 -45 -126 -46 -50 -47 -52 -41 -99 4 -31 16 -60 33 -80 38 -45 38 -111 1
-140 -47 -37 -107 -24 -198 41 l-39 28 -133 -7 -133 -6 -36 38 c-41 45 -46 88
-15 128 11 14 20 30 20 35 0 6 13 20 29 32 32 22 35 57 6 73 -10 5 -16 22 -15
45 0 20 -2 51 -5 67 -4 18 2 52 13 86 13 35 17 61 11 70 -17 28 -8 49 33 79
48 35 47 35 77 13z m2021 13 c0 -3 -4 -8 -10 -11 -5 -3 -10 -1 -10 4 0 6 5 11
10 11 6 0 10 -2 10 -4z m264 -135 c6 -5 15 -9 21 -9 5 0 11 -5 13 -10 1 -5
-20 -8 -48 -8 -27 0 -50 -4 -51 -9 -1 -15 -30 -45 -44 -45 -16 0 -48 -37 -42
-48 3 -4 -10 -15 -29 -24 -18 -9 -34 -14 -34 -11 0 8 28 32 32 28 3 -3 10 6
17 18 7 13 26 31 42 41 36 21 37 32 4 40 -29 7 -33 30 -7 46 19 12 108 6 126
-9z m126 -21 c0 -5 -2 -10 -4 -10 -3 0 -8 5 -11 10 -3 6 -1 10 4 10 6 0 11 -4
11 -10z m117 4 c-3 -3 -12 -4 -19 -1 -8 3 -5 6 6 6 11 1 17 -2 13 -5z m33 -4
c0 -5 -2 -10 -4 -10 -3 0 -8 5 -11 10 -3 6 -1 10 4 10 6 0 11 -4 11 -10z
m-504 -47 c-6 -33 -25 -69 -25 -51 -1 16 19 68 26 68 1 0 1 -8 -1 -17z m172
-37 c-10 -7 -15 -16 -11 -19 3 -4 1 -7 -6 -7 -7 0 -26 -14 -42 -31 -16 -17
-29 -28 -29 -24 0 11 94 104 100 99 3 -3 -3 -11 -12 -18z m-163 -31 c-14 -21
-25 -34 -25 -30 0 11 43 75 48 71 2 -2 -8 -21 -23 -41z m868 -25 c-1 -19 -6
-36 -12 -38 -6 -2 -9 -8 -6 -13 4 -5 -1 -6 -9 -3 -9 3 -16 15 -16 26 0 12 4
17 12 12 8 -5 9 -2 5 9 -4 10 -10 24 -13 33 -5 12 -1 15 17 12 20 -3 24 -8 22
-38z m-910 -22 c-6 -7 -13 -20 -16 -28 -3 -9 -6 -3 -6 13 -1 19 4 27 15 27 12
0 14 -4 7 -12z m17 -18 c-12 -8 -12 -10 -1 -10 8 0 12 -3 8 -6 -9 -9 -28 6
-22 17 4 5 12 9 18 9 7 0 6 -4 -3 -10z m310 -4 c0 -2 -12 -11 -27 -20 l-28
-17 24 20 c23 21 31 25 31 17z m-320 -48 c0 -13 -23 -5 -28 10 -2 7 2 10 12 6
9 -3 16 -11 16 -16z m247 -4 c-3 -3 -12 -4 -19 -1 -8 3 -5 6 6 6 11 1 17 -2
13 -5z m-387 -7 c0 -2 -10 -12 -22 -23 l-23 -19 19 23 c18 21 26 27 26 19z
m694 -9 c-3 -4 -9 -8 -15 -8 -5 0 -9 4 -9 8 0 5 7 9 15 9 8 0 12 -4 9 -9z m36
-32 c0 -2 -7 -6 -15 -10 -8 -3 -15 -1 -15 4 0 6 7 10 15 10 8 0 15 -2 15 -4z
m-436 -53 c-32 -48 -34 -49 -34 -31 0 13 45 68 56 68 2 0 -8 -17 -22 -37z
m-110 15 c-6 -10 -65 -10 -81 0 -6 4 11 7 37 7 27 1 46 -3 44 -7z m216 -3
c-13 -16 -4 -79 11 -70 5 4 6 -2 3 -12 -3 -10 2 -6 11 10 8 15 20 27 25 27 6
0 10 -12 10 -27 0 -22 -2 -25 -11 -13 -7 11 -9 7 -7 -19 3 -33 51 -99 68 -94
5 1 10 -7 13 -18 5 -18 2 -17 -31 7 -20 16 -32 21 -25 13 8 -9 9 -20 3 -29 -9
-13 -10 -13 -11 0 0 8 -5 4 -9 -10 l-8 -25 -1 28 c-1 18 -14 41 -36 64 -19 20
-42 53 -52 74 -15 34 -18 36 -29 21 -8 -9 -14 -30 -14 -46 0 -25 2 -27 17 -15
15 13 15 12 3 -8 -12 -19 -12 -25 5 -45 l20 -23 -22 19 c-13 11 -23 14 -23 8
0 -18 -27 -14 -34 4 -5 14 -4 15 8 5 18 -15 26 4 15 40 -5 20 -1 37 15 63 l22
36 27 -53 c32 -63 82 -114 91 -91 3 8 1 14 -4 14 -5 0 -24 28 -41 63 -17 34
-36 65 -41 68 -6 4 0 16 13 28 26 24 37 28 19 6z m385 -15 c-3 -5 -11 -10 -16
-10 -6 0 -7 5 -4 10 3 6 11 10 16 10 6 0 7 -4 4 -10z m-301 -26 c3 -8 2 -12
-4 -9 -6 3 -10 10 -10 16 0 14 7 11 14 -7z m256 -13 c0 -17 -4 -32 -9 -35 -4
-3 -6 6 -3 20 3 16 -1 30 -9 35 -11 7 -10 9 4 9 12 0 17 -8 17 -29z m-525 9
c-3 -5 -11 -10 -16 -10 -6 0 -7 5 -4 10 3 6 11 10 16 10 6 0 7 -4 4 -10z m215
0 c0 -5 -2 -10 -4 -10 -3 0 -8 5 -11 10 -3 6 -1 10 4 10 6 0 11 -4 11 -10z
m101 -27 c-12 -20 -14 -14 -5 12 4 9 9 14 11 11 3 -2 0 -13 -6 -23z m-336 -33
c1 -16 -2 -30 -6 -30 -5 0 -8 16 -7 35 1 42 10 38 13 -5z m296 -15 c-3 -5 -8
1 -11 15 -4 14 -4 29 -1 35 3 5 8 -1 11 -15 4 -14 4 -29 1 -35z m296 23 c-3
-8 -6 -5 -6 6 -1 11 2 17 5 13 3 -3 4 -12 1 -19z m41 -3 c-3 -3 -9 2 -12 12
-6 14 -5 15 5 6 7 -7 10 -15 7 -18z m-559 -38 c0 -21 -1 -21 -9 -2 -12 28 -12
37 0 30 6 -3 10 -16 9 -28z m525 -11 c-10 -20 -21 -36 -26 -36 -4 0 -8 -6 -8
-14 0 -17 -39 -65 -40 -48 0 6 5 12 11 12 6 0 8 7 5 16 -3 8 -2 12 4 9 6 -3
10 3 10 14 0 12 5 21 10 21 6 0 10 6 10 13 0 13 32 58 38 53 1 -2 -5 -20 -14
-40z m-274 15 c0 -10 -7 -21 -15 -24 -12 -5 -12 -2 -3 18 13 30 18 31 18 6z
m35 -4 c-8 -13 -13 -26 -9 -29 3 -3 0 -9 -7 -13 -9 -6 -10 -1 -5 21 4 16 13
32 19 36 18 12 19 10 2 -15z m286 6 c13 -16 12 -17 -3 -4 -17 13 -22 21 -14
21 2 0 10 -8 17 -17z m-628 -36 c3 -8 2 -20 -3 -26 -5 -9 -7 -4 -7 13 0 29 2
32 10 13z m-1198 -55 c57 -57 65 -71 61 -98 -7 -58 -25 -81 -70 -89 -107 -19
-119 -17 -142 26 -10 20 -13 41 -8 67 4 20 7 39 7 42 -1 3 8 22 19 43 31 62
77 65 133 9z m281 40 c7 -4 22 -28 34 -54 17 -37 20 -53 12 -75 -6 -17 -15
-26 -23 -24 -8 2 -28 6 -44 8 -21 3 -37 15 -53 40 -21 31 -22 38 -11 67 15 36
26 46 54 46 11 0 25 -4 31 -8z m1041 -74 c7 -16 10 -28 5 -28 -8 0 -33 59 -31
76 0 5 3 2 6 -6 3 -8 12 -27 20 -42z m83 22 c13 -8 13 -10 -2 -10 -9 0 -20 5
-23 10 -8 13 5 13 25 0z m128 -45 c-3 -3 -9 2 -12 12 -6 14 -5 15 5 6 7 -7 10
-15 7 -18z m-167 -32 c13 -16 12 -17 -3 -4 -17 13 -22 21 -14 21 2 0 10 -8 17
-17z m-111 -83 c6 -11 8 -20 6 -20 -3 0 -10 9 -16 20 -6 11 -8 20 -6 20 3 0
10 -9 16 -20z m-43 -122 c-3 -8 -6 -5 -6 6 -1 11 2 17 5 13 3 -3 4 -12 1 -19z
m-2444 -71 c3 -8 -1 -14 -8 -14 -7 0 -11 6 -8 14 3 7 6 13 8 13 2 0 5 -6 8
-13z m63 -14 c-9 -10 -35 -13 -40 -4 -3 4 7 8 21 9 15 1 23 -1 19 -5z m-342
-55 c-3 -4 -9 -8 -15 -8 -5 0 -9 4 -9 8 0 5 7 9 15 9 8 0 12 -4 9 -9z m3531
-228 c3 -5 2 -10 -4 -10 -5 0 -13 5 -16 10 -3 6 -2 10 4 10 5 0 13 -4 16 -10z
m-295 -180 c-29 -8 -40 -3 -21 10 8 4 21 5 30 2 12 -5 10 -8 -9 -12z"/>
<path d="M3775 4500 c3 -5 8 -10 11 -10 2 0 4 5 4 10 0 6 -5 10 -11 10 -5 0
-7 -4 -4 -10z"/>
<path d="M3820 4475 c15 -18 50 -20 50 -2 0 6 -14 13 -31 14 -26 2 -29 0 -19
-12z"/>
<path d="M2259 4463 c-13 -16 -12 -17 4 -4 9 7 17 15 17 17 0 8 -8 3 -21 -13z"/>
<path d="M3754 4469 c-8 -14 11 -33 25 -25 11 7 4 36 -9 36 -5 0 -12 -5 -16
-11z"/>
<path d="M3689 4303 c0 -10 -3 -13 -6 -6 -3 10 -11 9 -34 -2 -16 -9 -31 -15
-34 -15 -22 3 -83 -16 -99 -31 -10 -10 -22 -16 -26 -14 -5 3 -11 -2 -14 -11
-4 -9 -9 -14 -13 -10 -3 3 -12 -3 -20 -14 -8 -11 -23 -20 -34 -20 -17 0 -19
-5 -15 -31 4 -27 2 -30 -16 -26 -19 5 -20 2 -14 -33 5 -30 3 -38 -6 -35 -9 4
-14 -9 -16 -42 -1 -27 -7 -50 -12 -51 -6 -2 -7 -8 -4 -14 4 -6 0 -14 -7 -19
-10 -6 -13 -29 -11 -86 3 -110 5 -117 46 -203 17 -36 46 -39 46 -5 0 14 4 24
9 20 5 -3 12 -1 16 5 9 15 25 2 25 -21 0 -10 7 -19 15 -19 20 0 19 14 -1 35
-9 9 -13 19 -10 23 4 4 16 -4 26 -18 13 -17 29 -25 49 -25 23 -1 27 2 19 12
-15 19 2 16 38 -6 18 -11 47 -22 65 -25 19 -3 55 -9 82 -14 26 -5 49 -7 51 -3
2 3 29 6 60 5 31 0 56 3 56 6 0 4 18 15 40 25 30 13 44 15 52 7 8 -8 16 -7 30
1 15 10 20 9 28 -3 5 -8 12 -12 15 -9 3 4 -8 21 -25 39 -31 33 -45 38 -135 46
-27 3 -56 7 -64 10 -11 3 -11 1 -2 -10 13 -15 7 -15 -116 0 -50 6 -76 29 -41
37 13 3 39 4 58 2 72 -7 107 -6 174 1 67 7 68 7 61 -14 -5 -18 -2 -22 15 -22
12 0 33 -9 47 -20 15 -11 29 -18 32 -15 3 4 -1 10 -9 15 -25 16 -1 24 27 9 16
-7 31 -15 36 -17 19 -10 4 29 -19 47 -16 12 -21 21 -13 21 8 1 28 7 44 15 29
14 29 14 5 14 -87 -3 -97 0 -110 34 -29 76 -36 88 -52 93 -27 8 -21 21 11 26
17 2 28 1 25 -3 -2 -4 3 -15 12 -23 9 -9 18 -35 21 -57 7 -46 15 -53 51 -44
18 4 22 9 13 14 -9 6 -10 11 -3 15 6 4 9 13 6 20 -3 7 3 17 13 21 16 6 15 8
-7 17 -23 8 -23 10 -7 19 9 6 15 14 12 19 -3 4 -6 28 -6 52 -1 28 -9 51 -22
66 -11 12 -16 22 -11 22 5 0 -20 27 -54 60 -35 33 -60 64 -57 70 3 5 0 10 -8
10 -18 0 -32 30 -14 30 7 1 2 6 -11 13 -12 7 -20 16 -17 19 3 3 -14 3 -37 1
-24 -2 -38 0 -31 4 8 6 3 12 -14 20 -21 10 -24 10 -19 -3 6 -15 -9 -20 -18 -5
-3 5 -26 9 -51 9 -25 1 -50 4 -55 7 -6 4 -10 -2 -11 -12z m126 -233 c-6 -10 7
-14 34 -10 19 2 33 -22 18 -33 -8 -6 -4 -7 11 -4 12 3 20 1 16 -4 -3 -5 2 -9
10 -9 9 0 15 -6 14 -12 -2 -8 10 -13 36 -13 22 0 41 -5 43 -12 4 -12 -12 -17
-47 -15 -8 0 -18 -5 -22 -11 -5 -8 -8 -6 -8 6 0 17 -7 20 -42 20 -10 0 -18 4
-18 9 0 5 -13 7 -29 3 -17 -3 -39 -1 -50 5 -14 7 -21 7 -21 0 0 -5 -4 -10 -10
-10 -5 0 -6 8 -3 18 6 15 5 15 -11 3 -15 -12 -19 -12 -33 2 -15 15 -14 18 8
36 15 12 28 16 34 10 12 -12 28 -12 20 1 -3 6 3 10 14 10 11 0 23 5 26 10 3 6
8 10 11 10 3 0 2 -4 -1 -10z m-55 -176 c0 -2 -7 -4 -15 -4 -8 0 -15 4 -15 10
0 5 7 7 15 4 8 -4 15 -8 15 -10z m-375 -132 c-3 -3 -11 0 -18 7 -9 10 -8 11 6
5 10 -3 15 -9 12 -12z m28 -42 c3 -11 1 -20 -4 -20 -5 0 -9 9 -9 20 0 11 2 20
4 20 2 0 6 -9 9 -20z m2 -40 c-3 -5 -11 -10 -16 -10 -6 0 -7 5 -4 10 3 6 11
10 16 10 6 0 7 -4 4 -10z"/>
<path d="M2790 4271 c0 -5 -19 -12 -42 -16 -26 -5 -52 -17 -66 -32 -13 -14
-26 -23 -29 -19 -3 3 5 14 18 25 13 11 18 20 12 21 -7 0 -13 -4 -13 -10 0 -5
-9 -10 -20 -10 -10 0 -24 -8 -29 -17 -6 -10 -11 -13 -11 -6 0 7 -7 10 -15 7
-8 -3 -14 -9 -12 -12 3 -14 -36 -62 -52 -63 -11 0 -12 -2 -3 -6 10 -4 9 -8 -4
-18 -17 -12 -17 -14 -1 -29 16 -17 22 -13 17 9 -1 6 4 4 11 -2 7 -7 23 -13 35
-13 13 0 26 -5 29 -10 4 -7 13 -6 27 1 16 8 19 8 13 -1 -5 -9 -1 -10 15 -5 19
6 22 4 17 -9 -7 -18 13 -22 30 -5 8 8 13 8 17 0 4 -6 4 -11 -1 -11 -4 0 -2 -4
5 -9 20 -12 -15 -44 -40 -37 -11 2 -17 2 -14 -1 6 -7 -69 -43 -89 -43 -33 0
-162 -131 -149 -152 3 -4 10 -6 15 -3 5 4 9 2 9 -4 0 -6 37 -9 101 -6 56 2
111 0 123 -5 12 -4 43 -4 69 0 26 4 50 3 53 -2 3 -4 9 -6 13 -4 4 3 13 1 20
-4 17 -10 -36 -37 -89 -45 -42 -6 -110 -35 -110 -46 0 -4 -9 -11 -20 -14 -11
-4 -18 -11 -14 -16 3 -6 12 -8 18 -6 7 3 13 -2 13 -10 0 -12 -9 -13 -43 -8
-24 3 -45 2 -48 -4 -9 -13 93 -25 168 -19 88 7 268 101 250 130 -4 7 -2 8 5 4
6 -4 18 0 27 9 25 25 7 31 -24 8 -15 -11 -39 -23 -52 -27 -14 -3 -19 -3 -12 0
10 5 9 10 -5 21 -13 10 -14 13 -3 10 8 -2 28 2 43 10 16 8 31 12 34 9 11 -10
103 78 103 99 0 20 -28 75 -38 75 -12 0 -52 89 -43 94 14 9 19 54 8 65 -8 8
-4 11 11 11 39 0 27 41 -25 80 -101 77 -99 76 -84 57 17 -21 8 -22 -24 -1 -15
10 -38 15 -59 12 -19 -2 -32 0 -30 4 3 4 0 8 -5 8 -6 0 -11 -4 -11 -9z m43
-264 c-3 -4 -15 -7 -26 -5 -12 1 -28 -1 -35 -6 -15 -9 -27 -2 -18 12 3 6 24 9
45 9 22 -1 37 -5 34 -10z m-166 -120 c-6 -13 -16 -24 -21 -25 -27 -2 -45 -9
-58 -19 -7 -7 -26 -13 -40 -15 -15 -2 -30 -7 -34 -11 -4 -4 -17 -7 -28 -7 -19
0 -19 2 6 27 31 31 121 72 160 73 24 0 25 -2 15 -23z m168 -197 c-3 -5 -12
-10 -18 -10 -7 0 -6 4 3 10 19 12 23 12 15 0z"/>
<path d="M2481 4074 c0 -11 3 -14 6 -6 3 7 2 16 -1 19 -3 4 -6 -2 -5 -13z"/>
<path d="M4135 3220 c3 -5 8 -10 11 -10 2 0 4 5 4 10 0 6 -5 10 -11 10 -5 0
-7 -4 -4 -10z"/>
<path d="M2822 3120 c0 -14 2 -19 5 -12 2 6 2 18 0 25 -3 6 -5 1 -5 -13z"/>
<path d="M5811 6378 c29 -55 42 -63 93 -60 56 4 65 -3 72 -49 8 -51 54 -138
78 -145 12 -4 46 -6 76 -5 48 2 58 6 86 37 18 19 37 34 43 34 18 0 63 -31 104
-72 l37 -38 0 160 0 160 -68 0 c-68 0 -68 0 -77 -32 -13 -41 -54 -71 -86 -63
-13 3 -46 26 -73 51 l-48 44 -125 0 -124 0 12 -22z"/>
<path d="M5375 6301 c-39 -23 -43 -48 -11 -62 22 -10 29 -9 46 6 22 20 28 75
8 74 -7 0 -26 -8 -43 -18z"/>
<path d="M754 6136 c-22 -17 -20 -20 29 -41 34 -14 38 -14 43 0 7 17 -22 55
-41 55 -6 0 -20 -6 -31 -14z"/>
<path d="M6373 6013 c-29 -33 -28 -47 2 -103 l24 -45 1 88 c0 48 -1 87 -2 86
-2 0 -13 -12 -25 -26z"/>
<path d="M553 5993 c-21 -43 -60 -61 -133 -63 -27 0 -57 -8 -75 -20 -16 -11
-37 -20 -46 -20 -8 0 -24 -7 -35 -15 -16 -13 -17 -16 -4 -25 8 -5 33 -10 56
-10 28 0 47 -6 59 -20 10 -12 33 -30 51 -40 19 -12 40 -39 52 -68 12 -26 40
-64 62 -85 40 -37 41 -40 35 -85 -3 -26 -11 -64 -17 -85 -9 -31 -9 -40 2 -47
8 -5 18 -6 22 -4 4 3 8 0 8 -7 0 -18 29 23 30 42 0 8 11 30 25 49 23 31 24 36
10 57 -8 12 -15 29 -15 37 0 7 -18 36 -40 62 -22 27 -38 55 -35 62 2 7 0 23
-6 36 -14 31 20 101 62 124 36 21 38 50 5 90 -17 19 -23 36 -19 50 4 17 1 22
-15 22 -14 0 -26 -12 -39 -37z"/>
<path d="M6141 6017 c-15 -15 -14 -42 4 -57 20 -16 35 -4 35 30 0 30 -21 45
-39 27z"/>
<path d="M5428 6013 c-18 -4 -22 -15 -19 -41 1 -8 -6 -20 -15 -27 -16 -11 -16
-13 7 -25 13 -7 40 -32 60 -54 34 -38 38 -40 63 -28 15 6 38 12 51 12 43 0
115 -79 115 -126 0 -9 -18 -34 -40 -55 l-40 -38 43 -30 c35 -24 45 -39 60 -88
9 -32 20 -73 23 -90 8 -39 22 -52 64 -58 43 -5 47 14 14 66 -27 43 -27 44 -11
90 20 55 21 79 5 114 -8 19 -9 31 -1 43 6 10 11 44 12 76 2 92 -53 161 -126
158 -21 -1 -42 7 -61 23 -35 29 -150 85 -172 84 -8 -1 -23 -3 -32 -6z"/>
<path d="M6132 5763 c-11 -16 -30 -50 -42 -78 -13 -27 -35 -63 -49 -79 l-26
-29 41 6 c49 6 64 -1 60 -28 -5 -30 11 -43 44 -36 18 3 36 16 43 30 7 15 23
26 41 28 16 2 41 10 55 18 15 7 43 16 64 20 l37 7 0 84 0 83 -26 -26 c-23 -23
-30 -25 -77 -19 -29 4 -67 16 -85 27 -44 25 -57 24 -80 -8z"/>
<path d="M5496 5653 c-16 -17 -4 -34 22 -31 15 2 26 7 25 13 -2 11 -39 26 -47
18z"/>
<path d="M973 5498 c-26 -34 -36 -185 -13 -212 17 -21 40 -20 40 2 0 10 5 23
10 28 22 22 24 110 4 153 -20 44 -26 48 -41 29z"/>
<path d="M6057 5463 c-12 -11 -8 -23 8 -23 8 0 15 7 15 15 0 16 -12 20 -23 8z"/>
<path d="M6104 5458 c-4 -6 -3 -8 4 -4 6 3 4 -7 -4 -24 -15 -29 -34 -40 -34
-19 0 5 -4 7 -10 4 -5 -3 -10 0 -10 7 0 8 -5 6 -11 -5 -6 -10 -11 -47 -11 -83
0 -64 -1 -64 -27 -61 -17 2 -29 -2 -36 -14 -64 -114 -92 -150 -118 -156 -31
-6 -47 -29 -47 -67 0 -29 19 -75 32 -77 18 -3 24 -5 53 -21 17 -8 50 -18 74
-22 26 -4 74 -25 112 -49 65 -41 68 -43 71 -87 3 -40 6 -45 28 -47 14 -2 40
-6 58 -9 25 -5 32 -3 32 10 0 9 6 16 14 16 21 0 30 20 16 33 -10 9 -11 9 -6 0
8 -15 -10 -18 -19 -4 -3 6 4 15 15 21 13 7 20 7 20 1 0 -6 6 -8 14 -5 7 3 16
-2 20 -11 4 -11 -2 -19 -19 -25 -30 -11 -31 -24 -6 -49 11 -11 17 -22 14 -24
-2 -3 5 -8 16 -12 17 -5 30 -31 55 -105 2 -8 5 171 5 398 l1 412 -49 0 c-31 0
-53 5 -61 15 -7 8 -18 15 -26 15 -7 0 -17 7 -22 16 -18 32 -123 56 -138 32z"/>
<path d="M0 5400 c1 -30 5 -37 37 -52 36 -17 38 -17 58 1 11 10 27 21 35 23
20 7 50 -9 50 -27 0 -8 4 -15 9 -15 14 0 23 18 12 24 -5 3 -12 22 -15 41 -5
23 -13 35 -24 36 -9 0 -50 1 -89 2 l-73 2 0 -35z"/>
<path d="M580 5360 c0 -13 5 -18 15 -14 8 4 15 12 15 20 0 8 -7 14 -15 14 -8
0 -15 -9 -15 -20z"/>
<path d="M630 5256 c0 -19 13 -27 28 -17 8 4 5 11 -8 19 -16 10 -20 10 -20 -2z"/>
<path d="M1015 5240 c3 -5 8 -10 11 -10 2 0 4 5 4 10 0 6 -5 10 -11 10 -5 0
-7 -4 -4 -10z"/>
<path d="M5561 4911 c-9 -16 -16 -17 -53 -10 -61 12 -65 11 -72 -8 -11 -28 13
-122 34 -133 50 -27 155 -3 192 44 23 28 22 48 -2 76 -11 13 -20 20 -20 17 0
-4 -9 2 -20 13 -25 25 -46 26 -59 1z"/>
<path d="M5690 4608 c-19 -10 -46 -18 -60 -18 -14 0 -40 -13 -58 -28 -18 -16
-56 -37 -85 -47 -85 -29 -96 -62 -51 -155 21 -43 24 -58 15 -72 -17 -27 -13
-54 9 -69 11 -8 21 -25 23 -38 2 -14 9 -27 16 -29 8 -3 6 -9 -6 -18 -15 -11
-10 -11 26 1 61 21 78 19 93 -12 13 -26 18 -28 70 -26 41 1 58 -3 62 -13 3 -8
2 -14 -2 -14 -4 0 -6 -18 -4 -40 l4 -40 49 0 c27 0 50 -4 50 -10 3 -20 4 -25
12 -38 5 -7 12 -10 16 -8 15 10 52 -26 72 -70 12 -24 26 -44 32 -44 6 0 21
-10 32 -23 11 -12 32 -28 48 -35 23 -10 27 -18 27 -51 0 -48 -30 -118 -42 -99
-4 7 -8 9 -8 3 0 -24 18 -37 36 -27 11 6 25 7 35 1 11 -6 27 -4 44 5 20 11 34
12 56 4 16 -5 36 -7 45 -4 10 4 14 1 12 -6 -7 -19 13 -34 54 -42 20 -3 48 -16
62 -27 l26 -20 0 125 c0 121 -1 126 -21 126 -33 0 -60 19 -75 55 -31 76 -12
114 64 130 l32 7 0 105 0 105 -35 37 c-20 20 -45 51 -56 69 -10 18 -27 35 -37
39 -9 3 -27 15 -39 26 -19 17 -40 21 -140 25 -100 3 -121 7 -136 23 -23 25
-49 24 -72 -1 -24 -26 -80 -26 -122 0 -53 32 -57 96 -7 119 15 6 24 17 21 25
-3 7 5 24 17 37 20 22 25 59 8 59 -4 0 -23 4 -42 9 -27 6 -44 4 -70 -11z"/>
<path d="M6151 4536 c-9 -11 -19 -12 -47 -3 -39 12 -54 1 -54 -40 0 -36 33
-52 83 -39 59 16 67 23 67 62 0 27 -4 34 -19 34 -10 0 -24 -6 -30 -14z"/>
<path d="M6392 4470 c0 -14 2 -19 5 -12 2 6 2 18 0 25 -3 6 -5 1 -5 -13z"/>
<path d="M5168 4093 c-33 -17 -35 -36 -7 -64 31 -31 71 -22 83 18 16 56 -18
77 -76 46z"/>
<path d="M4755 3669 c-10 -15 3 -25 16 -12 7 7 7 13 1 17 -6 3 -14 1 -17 -5z"/>
<path d="M5788 3573 c-12 -20 -31 -48 -40 -62 -9 -14 -18 -39 -20 -56 -3 -27
1 -31 38 -43 26 -8 45 -22 52 -38 7 -13 16 -24 21 -24 10 0 81 -101 81 -116 0
-5 17 -26 36 -47 l35 -38 25 26 c14 15 23 32 21 39 -2 6 0 19 5 30 7 13 7 16
-1 12 -6 -4 -11 -1 -12 6 0 7 -2 21 -4 31 -2 12 8 25 29 38 18 10 38 31 44 45
7 14 16 22 22 19 5 -3 21 -3 35 1 20 5 23 9 14 20 -6 8 -14 12 -18 10 -14 -9
-35 13 -37 38 -2 42 -21 56 -72 52 -32 -3 -57 2 -81 15 -20 10 -41 19 -48 19
-6 0 -19 10 -27 22 -9 12 -16 19 -16 15 0 -5 -7 -1 -16 7 -24 24 -40 19 -66
-21z"/>
<path d="M5595 3174 c-9 -9 -14 -23 -11 -31 3 -8 6 -17 6 -19 0 -2 11 -4 24
-4 30 0 50 23 41 50 -8 24 -37 26 -60 4z"/>
<path d="M6365 3163 c-39 -21 -38 -19 -27 -39 17 -30 -33 -114 -58 -99 -6 3
-10 2 -10 -3 0 -5 9 -12 20 -15 11 -3 20 -2 20 2 0 10 62 1 78 -11 9 -8 12 10
12 86 0 53 -1 96 -2 96 -2 -1 -16 -8 -33 -17z"/>
<path d="M6217 3094 c-3 -20 -14 -45 -23 -55 -15 -17 -16 -25 -4 -74 13 -56
28 -67 50 -40 9 10 9 15 1 15 -14 0 -15 47 -1 55 6 3 10 20 10 36 0 16 6 32
14 35 38 15 23 64 -19 64 -18 0 -24 -7 -28 -36z"/>
<path d="M6363 2914 l-32 -38 30 -14 c16 -8 32 -12 35 -9 3 2 4 26 2 52 l-3
46 -32 -37z"/>
<path d="M5695 2889 c-16 -6 -48 -12 -69 -14 -45 -6 -66 -20 -66 -46 0 -11 -5
-19 -10 -19 -6 0 -10 -6 -9 -12 1 -7 -1 -30 -6 -51 -7 -37 8 -97 22 -84 3 4
15 0 25 -8 24 -16 38 -12 99 32 26 18 55 33 66 33 26 0 63 40 63 68 0 40 -28
92 -55 102 -15 6 -27 10 -28 9 -1 0 -15 -5 -32 -10z"/>
<path d="M6355 2605 c-14 -13 -25 -35 -25 -48 0 -23 -53 -83 -179 -200 -45
-42 -51 -67 -22 -88 17 -12 19 -20 11 -68 -5 -29 -17 -62 -26 -72 -13 -14 -16
-30 -11 -66 5 -46 4 -49 -34 -78 -34 -27 -55 -56 -28 -40 6 4 23 -7 39 -25
l28 -31 26 26 c14 14 28 38 31 53 13 61 55 127 103 160 26 17 56 32 67 32 11
0 30 3 43 6 l22 6 0 229 c0 153 -3 229 -10 229 -6 0 -22 -11 -35 -25z"/>
<path d="M5890 2378 c-25 -5 -53 -18 -62 -29 -10 -11 -22 -18 -27 -14 -6 3
-15 -4 -21 -16 -8 -15 -9 -19 -1 -15 6 4 11 2 11 -4 0 -6 16 -10 40 -8 44 2
58 -5 43 -24 -6 -7 -13 -30 -17 -50 -4 -22 -15 -42 -26 -48 -32 -17 -24 -44
18 -60 50 -18 69 -19 91 -3 17 11 19 21 14 68 -4 37 -2 55 5 55 20 0 52 43 52
71 0 15 5 31 10 34 6 3 10 15 10 27 0 16 -5 19 -20 15 -12 -3 -33 -2 -48 2
-15 4 -47 3 -72 -1z m-10 -252 c0 -3 -4 -8 -10 -11 -5 -3 -10 -1 -10 4 0 6 5
11 10 11 6 0 10 -2 10 -4z"/>
<path d="M5670 2323 c-13 -9 -20 -11 -16 -5 8 13 -12 16 -38 6 -12 -4 -8 -13
19 -40 19 -19 43 -34 55 -34 24 0 24 3 5 40 -11 22 -12 29 -2 33 6 2 9 7 6 10
-3 4 -16 -1 -29 -10z"/>
<path d="M3916 1235 c-103 -98 -123 -131 -44 -71 35 27 157 166 146 166 -2 0
-48 -43 -102 -95z"/>
<path d="M3755 1090 c-3 -5 -2 -10 4 -10 5 0 13 5 16 10 3 6 2 10 -4 10 -5 0
-13 -4 -16 -10z"/>
</g>
</svg>
