<?xml version="1.0" standalone="no"?>
<!DOCTYPE svg PUBLIC "-//W3C//DTD SVG 20010904//EN"
 "http://www.w3.org/TR/2001/REC-SVG-20010904/DTD/svg10.dtd">
<svg version="1.0" xmlns="http://www.w3.org/2000/svg"
 width="512.000000pt" height="512.000000pt" viewBox="0 0 512.000000 512.000000"
 preserveAspectRatio="xMidYMid meet">
<metadata>
Created by potrace 1.14, written by Peter Selinger 2001-2017
</metadata>
<g transform="translate(0.000000,512.000000) scale(0.100000,-0.100000)"
fill="#000000" stroke="none">
<path d="M2466 4793 c-4 -5 -11 -8 -14 -9 -4 0 -18 -5 -32 -11 -14 -6 -45 -17
-70 -24 -25 -7 -56 -20 -70 -29 -14 -9 -38 -22 -54 -30 -36 -19 -145 -138
-152 -167 -4 -13 -12 -23 -20 -23 -9 0 -14 -11 -14 -30 0 -16 -9 -37 -20 -48
-11 -11 -22 -32 -24 -48 -2 -16 -8 -47 -14 -69 -5 -22 -10 -76 -11 -120 -1
-44 -4 -98 -6 -119 -2 -25 6 -64 20 -105 13 -36 24 -75 23 -86 -1 -11 2 -37 6
-58 5 -27 4 -37 -3 -32 -17 10 -34 -5 -22 -18 5 -7 11 -25 14 -42 4 -27 4 -27
6 8 0 20 4 37 7 37 22 0 98 -154 98 -197 0 -18 3 -33 7 -33 4 0 3 -16 -1 -35
-9 -38 6 -85 27 -85 7 0 10 -7 6 -16 -3 -8 -11 -13 -18 -10 -7 2 -22 -9 -35
-26 -27 -36 -36 -29 -44 37 -4 28 -13 86 -20 130 -17 98 -21 47 -6 -72 8 -64
8 -87 -2 -103 -18 -29 -24 -25 -38 24 l-12 44 -29 -15 c-16 -8 -31 -19 -35
-25 -4 -6 2 -6 15 1 19 11 21 9 21 -16 0 -43 -12 -54 -48 -47 -26 5 -30 9 -21
20 9 11 8 14 -3 14 -8 0 -19 -5 -25 -11 -8 -8 -13 -7 -18 1 -5 8 -1 16 8 22 9
5 21 17 27 27 8 16 7 18 -9 14 -16 -4 -19 -1 -15 19 l5 23 -12 -22 c-7 -13
-16 -23 -21 -23 -4 0 -8 -9 -8 -20 0 -11 -7 -20 -15 -20 -8 0 -15 -9 -15 -19
0 -11 -5 -23 -10 -26 -6 -4 -8 -11 -5 -16 4 -5 1 -9 -4 -9 -6 0 -11 5 -11 10
0 6 -13 10 -28 10 -16 0 -37 6 -48 14 -18 14 -18 16 19 53 20 21 37 43 37 48
0 5 10 19 22 32 12 13 17 23 12 23 -5 0 -24 -22 -42 -50 -30 -45 -72 -82 -72
-63 0 27 23 79 52 116 18 23 25 36 15 28 -15 -12 -17 -11 -17 2 0 9 5 19 10
22 13 8 13 25 1 25 -5 0 -13 -9 -16 -21 -4 -11 -12 -18 -18 -16 -7 2 -17 -9
-24 -25 -15 -35 -29 -36 -37 -2 -5 17 -11 23 -16 18 -6 -6 -6 -22 0 -43 10
-35 3 -88 -12 -97 -16 -10 -21 4 -10 34 6 17 6 35 1 43 -6 10 -9 5 -9 -16 0
-22 -3 -26 -12 -17 -9 9 -9 20 -1 45 17 49 26 115 14 97 -6 -8 -11 -25 -11
-37 0 -12 -5 -34 -11 -50 -10 -26 -12 -27 -23 -10 -7 9 -16 17 -20 17 -11 0 4
-42 20 -58 16 -16 18 -32 4 -32 -5 0 -10 7 -10 16 0 8 -5 12 -11 9 -7 -5 -5
-13 5 -24 9 -10 13 -20 10 -24 -12 -12 -53 25 -59 54 -10 43 -25 45 -21 3 4
-45 -29 -108 -51 -100 -8 3 -18 6 -23 6 -4 0 -10 13 -12 30 -3 21 0 30 11 33
9 2 -18 2 -59 1 -56 -2 -79 1 -92 13 -10 9 -25 13 -34 9 -16 -6 -15 -8 2 -21
13 -10 15 -14 5 -15 -10 0 -11 -3 -3 -13 8 -10 6 -16 -10 -26 -17 -11 -23 -10
-39 8 -23 24 -66 27 -122 7 -23 -8 -40 -10 -43 -4 -3 5 -3 12 0 15 3 3 1 14
-4 23 -11 20 -42 17 -61 -6 -6 -8 -18 -14 -26 -14 -13 0 -13 3 -2 18 7 9 9 14
5 10 -5 -4 -15 -3 -22 3 -16 13 -30 -7 -16 -24 14 -17 -31 -72 -52 -64 -9 4
-16 2 -16 -4 0 -16 -25 -5 -26 12 -3 39 -4 41 -29 35 -24 -6 -37 8 -14 16 6 2
-6 17 -26 33 -31 23 -49 29 -98 31 -41 1 -63 7 -68 17 -12 20 -76 19 -107 -1
-16 -10 -50 -17 -96 -18 -82 -2 -136 -12 -136 -25 0 -5 -6 -9 -12 -9 -7 0 -21
-18 -31 -39 -19 -42 -53 -59 -71 -36 -7 9 -21 12 -39 8 l-27 -5 2 -332 3 -331
180 -17 c265 -25 273 -26 365 -32 47 -4 119 -11 160 -16 41 -5 143 -17 225
-25 83 -9 162 -18 177 -20 24 -4 30 3 69 73 53 98 109 163 171 203 27 17 47
34 44 36 -3 3 -69 7 -148 9 -79 2 -186 6 -238 10 -52 4 -101 7 -108 5 -6 -1
-12 3 -12 9 0 5 3 10 8 11 4 0 29 2 56 5 27 2 52 7 55 11 3 5 30 9 59 10 39 2
54 -2 59 -12 8 -22 30 -18 36 7 5 18 9 19 21 9 8 -7 19 -10 24 -7 5 3 18 -1
28 -9 22 -16 82 -19 104 -5 9 6 17 5 21 -2 12 -20 104 -13 137 11 17 11 63 37
104 56 65 31 77 34 110 25 61 -17 98 -57 140 -150 59 -129 203 -439 273 -590
75 -160 104 -243 140 -405 15 -66 45 -185 67 -265 22 -80 40 -154 39 -164 0
-10 7 -32 15 -48 9 -17 13 -32 10 -35 -7 -7 -91 63 -110 91 -9 15 -29 26 -53
31 -21 4 -45 13 -54 21 -9 8 -56 21 -104 30 -133 23 -231 66 -310 135 -30 26
-33 34 -28 66 8 48 -12 36 -21 -13 -7 -34 -9 -35 -39 -29 l-32 7 28 -29 28
-30 -20 -25 c-11 -14 -30 -50 -41 -81 -30 -79 -52 -91 -154 -82 -72 6 -79 5
-62 -8 19 -14 19 -15 -10 -22 -21 -5 -40 -24 -71 -71 -24 -35 -43 -68 -43 -73
0 -5 -7 -22 -15 -37 -8 -16 -15 -23 -15 -15 0 10 -3 11 -14 2 -19 -16 -13 -45
9 -50 23 -4 75 -58 75 -77 0 -15 -39 -35 -52 -27 -5 2 -8 -2 -8 -10 0 -8 -6
-17 -14 -20 -11 -4 -13 -27 -12 -99 1 -52 6 -100 11 -108 5 -8 1 -18 -11 -28
-13 -10 -15 -16 -6 -19 6 -3 12 -13 12 -24 0 -10 5 -19 12 -19 6 0 8 -3 5 -7
-4 -3 -15 1 -25 10 -19 18 -32 14 -32 -10 0 -7 7 -13 16 -13 14 0 14 -2 3 -16
-7 -9 -14 -33 -15 -53 -2 -28 4 -41 24 -58 24 -20 25 -25 14 -43 -17 -27 -16
-30 13 -30 23 0 24 -2 15 -20 -6 -11 -7 -20 -2 -20 14 0 8 -35 -11 -63 -22
-34 -24 -65 -2 -47 8 7 16 9 16 4 1 -5 2 -13 4 -19 1 -5 3 -18 3 -29 1 -12 7
-16 17 -12 22 8 18 -3 -7 -25 -20 -16 -20 -18 -5 -19 11 0 17 -8 17 -23 0 -13
3 -27 7 -31 10 -9 14 -41 17 -122 3 -100 8 -104 122 -104 l93 0 -15 28 c-18
35 -18 53 1 46 9 -4 15 0 15 9 0 9 -9 19 -20 22 -24 8 -25 18 -3 41 24 23 24
41 2 47 -10 3 -19 10 -19 16 0 11 19 15 53 12 9 -1 17 3 17 8 0 6 8 11 18 11
14 0 14 -2 3 -9 -8 -5 -14 -23 -14 -40 0 -17 -4 -31 -8 -31 -4 0 -9 -7 -13
-15 -3 -9 0 -15 8 -15 7 0 18 15 24 33 10 31 10 31 13 -23 3 -72 3 -70 -5
-108 l-8 -32 64 0 64 0 13 65 c8 37 10 85 7 109 -6 37 -4 46 11 54 14 8 28 3
66 -25 42 -31 156 -82 302 -134 22 -8 45 -25 51 -37 7 -14 14 -18 20 -12 7 7
25 5 52 -4 35 -13 159 -15 796 -16 l755 0 3 26 c4 38 21 40 35 4 l11 -30 129
0 128 0 19 66 c11 37 20 85 20 108 1 22 5 46 9 53 4 6 3 15 -3 18 -6 4 -8 16
-5 26 4 11 2 26 -4 33 -16 19 -6 71 23 121 31 52 37 153 11 175 -13 11 -15 27
-10 79 3 36 9 118 15 181 5 63 8 141 5 173 -2 31 0 57 5 57 14 0 19 41 5 46
-9 4 -12 21 -9 61 5 63 10 77 29 69 8 -3 29 -1 48 5 18 5 92 11 163 14 157 5
241 16 274 35 37 21 153 34 230 26 25 -2 63 0 85 4 22 5 52 11 68 15 21 4 27
11 27 30 0 18 -5 25 -19 25 -29 0 -378 -48 -434 -60 -65 -13 -94 -12 -142 6
-44 17 -55 19 -170 28 -129 11 -148 15 -135 31 8 9 8 15 0 20 -5 3 -14 -3 -18
-14 -6 -16 -10 -17 -23 -8 -47 35 -48 97 -1 91 25 -3 24 -3 -5 7 -21 8 -34 20
-38 38 -4 14 -14 34 -23 44 -14 16 -14 19 -2 27 11 7 11 10 2 10 -16 0 -117
205 -107 219 3 6 31 11 61 11 30 0 54 5 54 10 0 6 14 10 31 10 17 0 28 -4 24
-10 -3 -5 -13 -6 -22 -3 -12 5 -14 3 -8 -7 6 -10 28 -11 91 -6 45 3 89 9 98
12 25 10 19 46 -11 72 l-28 24 30 -7 c17 -4 43 -11 59 -16 16 -5 43 -9 61 -9
17 0 67 -9 111 -21 43 -11 110 -22 147 -24 37 -2 73 -8 80 -13 12 -10 84 -18
245 -29 l93 -6 -3 139 -3 139 -24 -3 c-13 -2 -31 -10 -38 -18 -8 -8 -19 -14
-25 -14 -5 0 -8 -7 -4 -15 4 -11 -1 -15 -17 -15 -38 0 -67 12 -67 26 0 22 -72
64 -88 51 -10 -8 -16 -7 -21 1 -5 9 -12 7 -27 -6 -29 -27 -50 -32 -72 -16 -12
8 -27 13 -34 12 -8 -2 -12 5 -10 16 3 16 1 18 -10 9 -8 -7 -19 -8 -27 -3 -9 5
-30 -1 -58 -16 -37 -19 -48 -21 -64 -11 -10 6 -19 15 -19 20 0 4 -16 15 -35
23 -38 16 -87 10 -79 -10 3 -8 -6 -11 -31 -8 -26 3 -35 9 -35 23 0 12 -7 19
-20 19 -11 0 -20 4 -20 8 0 14 -80 5 -99 -12 -20 -18 -51 -21 -51 -5 0 29 -78
63 -120 52 -21 -6 -21 -6 -25 -41 -1 -12 -6 -26 -10 -30 -5 -4 -6 0 -2 10 4
10 -1 18 -13 21 -17 4 -38 62 -27 73 3 3 58 0 123 -5 175 -16 235 -15 228 4
-7 18 -4 18 31 5 14 -5 23 -14 20 -20 -4 -6 8 -10 27 -11 18 0 44 -3 58 -6 14
-3 68 -7 120 -10 52 -2 140 -8 195 -13 164 -14 265 -17 265 -8 0 4 -6 8 -12 8
-9 0 -8 4 2 10 24 16 33 12 28 -14 -4 -20 0 -25 25 -30 67 -14 67 -14 67 74 0
66 -3 80 -16 80 -9 0 -14 6 -11 13 2 6 10 11 16 10 6 -2 11 7 11 20 -1 21 -1
21 -15 3 -14 -19 -35 -14 -35 9 0 7 -9 17 -20 20 -31 10 -23 22 15 23 20 1 40
4 46 7 5 4 9 55 8 115 0 84 -4 110 -15 114 -19 7 -18 26 1 26 11 0 15 12 15
50 0 40 -3 50 -16 50 -9 0 -22 -7 -28 -16 -10 -14 -15 -14 -41 0 -26 13 -32
14 -51 1 -19 -12 -23 -12 -28 0 -7 18 -47 20 -65 3 -10 -11 -15 -10 -25 5 -17
22 -25 22 -42 0 -12 -17 -14 -17 -34 5 -15 15 -28 21 -39 16 -9 -3 -30 -6 -46
-5 -17 1 -39 -5 -50 -13 -17 -12 -21 -11 -36 8 -16 18 -20 19 -39 8 -19 -11
-24 -11 -33 2 -15 20 -49 14 -57 -9 -6 -17 -7 -17 -13 -2 -5 13 -18 17 -49 17
-24 -1 -52 -1 -62 0 -11 1 -23 -5 -27 -11 -6 -10 -11 -10 -23 0 -10 8 -26 10
-47 6 -30 -7 -31 -6 -25 19 5 19 3 26 -9 26 -8 0 -15 -6 -15 -13 0 -18 -24
-67 -32 -67 -5 0 -8 11 -8 24 0 26 -26 41 -53 30 -12 -4 -15 3 -15 41 0 26 -5
59 -12 74 -12 29 -57 61 -86 61 -14 0 -11 -6 13 -22 38 -27 41 -33 49 -104 10
-79 -7 -110 -75 -141 -105 -49 -155 -63 -166 -49 -5 7 -18 15 -27 19 -29 10
-21 44 17 73 19 14 35 32 35 40 0 7 9 18 21 24 21 12 19 22 -5 26 -7 1 -23 5
-35 9 -16 5 -34 -1 -62 -20 -21 -15 -39 -31 -39 -36 0 -5 -6 -6 -14 -3 -11 4
-148 -61 -181 -86 -5 -5 -67 -33 -137 -63 -79 -35 -148 -73 -182 -101 -31 -25
-65 -50 -76 -56 -11 -6 -20 -16 -20 -22 0 -9 91 -175 152 -275 59 -98 -62 53
-144 180 -21 31 -42 57 -47 57 -5 0 -46 -24 -89 -52 -44 -29 -94 -61 -112 -71
-31 -17 -32 -18 -15 -37 23 -26 29 -76 10 -84 -22 -8 -18 -19 9 -32 20 -9 26
-9 30 3 4 8 4 18 1 23 -3 4 1 10 9 13 9 4 16 -3 18 -18 6 -27 -9 -58 -23 -49
-5 3 -24 9 -42 14 -27 7 -29 7 -13 -3 10 -7 33 -21 50 -32 32 -21 71 -22 63
-2 -3 7 -8 19 -11 27 -3 8 3 30 15 49 l20 34 72 -6 c93 -7 107 -13 107 -46 0
-19 15 -42 55 -81 51 -50 56 -53 80 -42 21 10 25 17 20 35 -4 12 -11 26 -16
31 -18 20 -8 45 31 83 67 63 116 85 182 80 45 -2 67 -10 102 -35 24 -18 49
-32 55 -32 6 0 11 -8 11 -18 0 -13 -12 -23 -41 -31 -32 -10 -38 -15 -29 -25 7
-9 7 -22 1 -37 -5 -14 -8 -36 -6 -50 2 -22 -1 -25 -29 -27 -80 -5 -86 -10 -82
-57 4 -49 -14 -129 -32 -147 -7 -7 -12 -18 -12 -25 0 -20 -14 -16 -28 8 -10
15 -11 24 -3 32 6 6 11 16 11 21 0 6 -7 2 -15 -8 -8 -11 -15 -41 -15 -67 0
-25 -7 -66 -15 -89 -16 -44 -11 -69 6 -37 6 9 14 17 19 17 14 0 44 -49 36 -58
-4 -3 -11 0 -16 8 -12 19 -16 5 -25 -72 -6 -56 -8 -58 -35 -58 -16 0 -30 -6
-33 -12 -3 -10 -16 -7 -50 9 -26 13 -47 27 -47 32 0 5 15 34 34 65 33 55 57
149 41 164 -4 4 -10 2 -12 -4 -2 -7 -13 -10 -24 -7 -10 3 -26 0 -34 -7 -12
-10 -16 -9 -21 4 -3 9 -12 16 -19 16 -7 0 -16 6 -18 13 -4 10 -6 10 -6 0 -1
-7 -10 -13 -20 -13 -30 0 -43 -72 -22 -123 16 -40 15 -43 -29 -89 -37 -37 -46
-41 -91 -42 -40 -1 -48 -4 -43 -16 3 -8 8 -21 11 -28 3 -7 -3 -12 -16 -12 -21
0 -41 27 -34 47 2 6 -1 14 -6 18 -22 13 -10 53 29 97 28 32 41 58 46 89 9 59
36 101 79 125 19 10 35 21 35 25 0 3 -28 9 -61 12 -56 5 -64 9 -93 43 -40 49
-39 60 4 56 19 -1 42 2 50 8 11 7 4 10 -30 11 -75 1 -84 4 -117 37 -38 39 -59
40 -104 7 -19 -14 -42 -28 -51 -31 -10 -3 -20 -15 -23 -25 -4 -10 -9 -19 -13
-19 -16 1 -42 29 -42 45 0 15 -2 16 -16 4 -14 -11 -19 -10 -35 10 -21 25 -24
47 -10 55 5 4 -1 27 -14 54 -12 26 -30 72 -40 102 -52 168 -73 225 -118 320
-27 58 -57 130 -67 160 -34 104 -59 163 -95 222 -19 33 -35 61 -35 64 0 7 -70
107 -94 133 -11 13 -36 30 -53 37 -18 8 -33 18 -33 24 0 5 23 32 50 61 53 55
60 72 58 129 -1 19 -1 110 0 203 2 141 4 167 17 167 8 0 15 7 15 15 0 16 -32
37 -52 33 -7 -2 -23 17 -35 42 -27 56 -32 163 -7 198 17 24 62 30 82 10 22
-22 13 -34 -23 -30 -19 2 -42 -1 -50 -8 -16 -14 -19 -72 -5 -105 8 -18 9 -18
9 5 2 42 13 70 27 70 8 0 17 -7 20 -15 4 -8 17 -15 30 -15 37 0 28 -23 -17
-42 -35 -15 -40 -21 -37 -45 3 -27 5 -28 58 -28 l55 0 3 40 c2 30 0 36 -8 25
-7 -11 -9 -5 -9 25 1 22 3 32 6 23 5 -21 24 -23 41 -6 16 16 16 -4 0 -21 -11
-11 -8 -12 16 -7 28 7 29 6 23 -24 -4 -19 -3 -29 3 -25 7 4 9 -26 8 -84 -2
-50 -6 -91 -10 -91 -5 0 -8 -18 -8 -39 0 -22 -4 -43 -10 -46 -5 -3 -10 -17
-10 -31 0 -14 -4 -23 -9 -20 -4 3 -8 -7 -8 -22 0 -15 -3 -34 -7 -43 -14 -33 2
-90 45 -156 49 -77 80 -109 124 -128 42 -19 74 -51 82 -83 3 -15 15 -40 25
-57 10 -16 18 -47 18 -67 0 -20 5 -49 10 -63 l10 -27 36 21 c34 20 38 21 60 6
13 -8 24 -19 24 -23 0 -4 17 -14 38 -21 20 -8 48 -23 62 -33 24 -19 25 -19 41
1 10 12 21 21 25 21 4 0 16 7 26 17 11 10 18 12 18 4 0 -6 45 26 100 71 139
115 150 120 234 126 60 4 87 -1 169 -26 53 -16 94 -26 91 -21 -3 5 20 9 50 9
42 0 56 -4 56 -14 0 -22 -17 -28 -39 -16 -32 17 -32 -5 0 -24 16 -9 29 -12 29
-7 0 23 21 10 26 -16 3 -16 17 -36 30 -46 23 -17 24 -17 24 3 0 16 6 20 34 20
35 0 55 13 36 25 -16 10 -12 35 6 35 9 0 14 -8 13 -17 -3 -35 1 -43 23 -43 17
0 19 3 10 12 -18 18 -15 28 8 28 11 0 20 -4 20 -10 0 -5 5 -10 10 -10 6 0 10
7 10 15 0 11 7 14 24 9 22 -5 25 -2 31 33 12 76 12 82 -1 87 -8 3 -14 12 -14
21 0 16 6 16 90 -6 19 -5 37 -5 40 0 3 5 14 11 25 13 11 2 19 10 17 18 -4 19
17 30 61 30 44 0 48 -12 10 -30 l-28 -13 24 -6 c27 -7 41 -31 18 -31 -20 0
-67 -49 -67 -71 0 -9 -5 -19 -11 -21 -9 -3 -9 -10 0 -27 10 -19 19 -22 47 -19
38 5 45 -8 12 -21 -22 -9 -22 -9 7 -16 17 -3 40 -11 53 -16 33 -13 58 -11 72
6 9 11 15 13 20 5 4 -6 22 -10 41 -7 30 4 32 5 12 12 -43 14 -23 25 29 16 4 0
5 -8 2 -16 -4 -11 1 -15 17 -16 21 0 22 -1 5 -8 -11 -4 -20 -15 -22 -24 -3
-20 12 -32 21 -17 3 5 19 10 36 10 16 0 29 5 29 11 0 7 11 21 25 33 l25 21
-46 0 c-35 0 -51 6 -75 28 -27 24 -28 27 -10 27 11 0 23 -4 26 -10 3 -5 21
-10 38 -9 18 0 26 3 20 6 -26 10 -12 22 19 16 44 -9 61 -28 54 -58 -5 -20 -3
-25 14 -25 11 0 20 4 20 9 0 5 8 12 18 14 10 3 6 5 -10 6 -19 1 -28 6 -28 17
0 10 6 14 15 10 8 -3 15 -2 15 3 0 16 55 20 76 6 14 -9 25 -10 31 -4 7 7 12 6
16 -4 3 -9 -4 -20 -19 -27 -13 -8 -24 -20 -24 -29 0 -12 2 -13 8 -4 13 21 123
73 154 73 21 0 29 -6 34 -25 6 -25 13 -29 79 -40 22 -4 46 -11 53 -17 8 -7 12
-7 12 1 0 16 -37 51 -57 53 -10 0 -24 2 -32 2 -17 1 -34 43 -21 51 6 4 10 15
10 26 0 14 8 19 33 21 69 3 92 1 94 -6 3 -17 27 -24 45 -15 19 10 25 49 8 49
-19 0 -10 45 15 72 24 26 25 31 25 173 0 129 -8 172 -23 133 -3 -7 -6 -1 -6
14 -1 22 -5 26 -18 21 -12 -4 -11 0 5 11 12 10 27 14 32 11 6 -3 10 3 10 14 0
28 -6 27 -56 -15 -27 -21 -49 -32 -56 -28 -8 5 -7 0 2 -11 14 -17 13 -18 -2
-12 -10 3 -33 0 -53 -9 -31 -13 -35 -13 -35 1 0 9 4 14 9 10 6 -3 15 4 21 15
6 11 18 20 26 20 8 0 13 4 9 10 -3 5 -12 7 -20 4 -26 -10 -38 7 -18 28 17 19
17 19 -11 12 -28 -7 -29 -6 -23 24 4 20 1 34 -8 42 -10 9 -11 18 -4 37 5 14 7
28 4 31 -3 3 -5 0 -5 -6 0 -22 -18 -12 -29 16 -9 23 -10 23 -5 2 11 -40 13
-150 3 -150 -5 0 -9 4 -9 9 0 5 -8 11 -17 15 -10 3 -24 9 -32 12 -9 4 -11 2
-7 -5 12 -19 -4 -12 -36 14 -16 14 -36 25 -44 25 -8 0 -20 11 -26 25 -6 14
-15 25 -20 25 -5 0 -6 5 -3 11 5 7 14 4 28 -7 21 -18 21 -17 0 6 -21 22 -23
23 -41 7 -10 -9 -24 -17 -30 -17 -7 0 -12 -4 -12 -10 0 -13 -27 -13 -35 0 -6
10 12 51 28 61 5 4 5 9 -2 13 -6 4 -11 3 -11 -3 0 -6 -7 -8 -15 -5 -10 4 -13
14 -9 30 6 24 -11 35 -18 12 -3 -9 -6 -9 -12 0 -4 7 -2 12 3 12 6 0 11 8 11
18 0 12 -8 17 -29 17 -18 0 -27 -4 -24 -12 8 -21 -7 -36 -22 -23 -18 15 -35 4
-36 -23 0 -19 -2 -20 -11 -6 -9 13 -16 14 -40 5 -26 -10 -31 -8 -48 14 -17 23
-19 23 -26 7 -4 -10 -13 -16 -21 -13 -7 3 -16 -1 -19 -9 -7 -18 -31 -9 -37 16
-3 10 -9 19 -15 19 -6 0 -5 -15 1 -40 19 -69 -4 -63 -59 14 -7 11 -16 17 -19
14 -3 -3 6 -19 20 -36 21 -26 24 -36 18 -62 l-8 -31 -22 21 c-24 21 -43 26
-43 10 0 -5 -11 -12 -25 -16 -14 -3 -23 -10 -20 -14 5 -8 -55 -18 -74 -12 -6
2 -12 13 -12 25 -1 16 -3 17 -6 5 -2 -9 2 -29 10 -45 19 -40 16 -56 -13 -64
-21 -6 -20 -7 11 -6 35 0 83 -29 73 -45 -3 -5 -10 -6 -15 -3 -5 4 -9 -4 -9
-15 0 -14 -8 -24 -20 -27 -14 -4 -19 -11 -15 -22 4 -12 -3 -22 -22 -30 -16 -8
-40 -20 -54 -27 -42 -22 -130 -28 -161 -11 -29 15 -68 58 -68 75 0 5 11 13 25
16 40 10 29 21 -20 21 -30 0 -45 -4 -45 -12 0 -23 -27 -14 -66 22 -29 27 -46
35 -76 35 -21 0 -38 -4 -38 -10 0 -16 -22 -12 -36 8 -11 14 -16 15 -33 5 -24
-15 -54 -6 -47 13 3 7 -4 16 -15 19 -10 4 -17 11 -14 16 9 14 -44 -9 -62 -27
-16 -16 -11 -25 22 -37 6 -3 6 -8 2 -13 -4 -4 -16 -3 -27 4 -16 10 -20 8 -25
-8 -4 -14 -13 -18 -28 -16 -12 3 -24 5 -26 5 -2 1 4 10 14 21 15 16 15 22 5
35 -16 19 -25 19 -46 -2 -16 -16 -16 -15 -10 22 11 59 10 92 -4 173 -12 71
-12 73 12 97 30 29 47 82 55 171 7 74 -5 94 -56 94 -34 0 -59 39 -109 171 -22
57 -43 112 -47 122 -4 10 -3 17 4 17 6 0 8 7 5 15 -4 8 -1 22 6 29 8 11 9 20
0 36 -6 11 -8 35 -4 55 5 30 2 38 -32 73 -22 22 -47 52 -57 66 -13 19 -24 25
-37 21 -11 -4 -34 4 -57 18 -62 39 -109 50 -187 44 -50 -3 -82 -1 -105 9 -37
16 -64 18 -75 7z m209 -316 c27 -14 85 -26 85 -18 0 4 -17 13 -37 21 -24 9
-32 15 -22 17 9 2 32 -5 50 -16 19 -12 42 -21 52 -21 26 0 78 -28 108 -59 14
-14 33 -31 43 -36 11 -6 21 -30 27 -60 5 -28 17 -56 27 -63 41 -30 51 -42 46
-55 -3 -8 -16 -13 -31 -11 -16 1 -32 -4 -40 -14 -11 -16 -12 -16 -13 1 0 18
-15 23 -24 8 -3 -4 -29 -11 -58 -15 -29 -4 -88 -20 -130 -36 -43 -17 -94 -30
-114 -30 -31 0 -36 -3 -31 -20 3 -11 1 -23 -4 -26 -5 -3 -9 0 -9 5 0 6 -7 11
-15 11 -8 0 -15 5 -15 10 0 6 -27 10 -61 10 -52 0 -60 2 -55 16 14 37 18 65
10 81 -4 10 -9 60 -10 111 -2 77 -6 96 -21 108 -16 12 -16 13 -2 14 9 0 24 11
33 25 14 21 21 23 49 18 28 -6 31 -5 19 10 -11 13 -10 17 5 26 20 12 107 4
138 -12z m-55 -456 c0 -15 -31 -22 -66 -15 -56 10 -49 24 10 24 31 0 56 -4 56
-9z m70 -56 c0 -8 -9 -15 -20 -15 -20 0 -26 11 -13 23 12 13 33 7 33 -8z
m-114 -34 c69 -21 109 -39 125 -56 13 -14 36 -32 50 -40 21 -11 25 -20 22 -42
-8 -50 -12 -58 -25 -45 -9 9 -16 8 -30 -5 -13 -11 -21 -13 -30 -5 -8 7 -29 7
-58 2 -49 -9 -100 -3 -100 12 0 5 -12 25 -26 44 -15 19 -30 51 -34 72 -5 20
-11 52 -16 71 -6 27 -4 33 7 29 8 -3 60 -19 115 -37z m502 -34 c35 -58 37 -85
10 -117 -10 -12 -29 -15 -85 -12 -74 4 -90 15 -59 42 8 6 27 43 41 81 33 85
46 86 93 6z m956 -272 c-4 -8 -8 -15 -10 -15 -2 0 -4 7 -4 15 0 8 4 15 10 15
5 0 7 -7 4 -15z m74 -6 c-2 -6 -8 -10 -13 -10 -5 0 -11 4 -13 10 -2 6 4 11 13
11 9 0 15 -5 13 -11z m652 -25 c0 -3 -6 -12 -14 -20 -11 -10 -17 -11 -22 -3
-3 6 0 15 7 20 16 10 29 12 29 3z m110 -54 c16 -24 11 -40 -10 -40 -11 0 -20
7 -20 15 0 8 -9 15 -20 15 -22 0 -27 16 -7 23 23 8 48 2 57 -13z m-1689 -23
c-13 -13 -26 -3 -16 12 3 6 11 8 17 5 6 -4 6 -10 -1 -17z m187 1 c-3 -7 -12
-14 -21 -16 -12 -2 -15 1 -11 12 7 19 38 22 32 4z m-1678 -12 c0 -8 -6 -21
-13 -28 -7 -7 -18 -22 -25 -33 -11 -19 -11 -19 -12 4 0 14 10 35 22 48 25 27
28 28 28 9z m-1030 -116 c0 -5 7 -7 16 -3 14 5 14 3 3 -15 -12 -20 -15 -20
-31 -5 -10 9 -15 20 -12 24 7 12 24 11 24 -1z m960 -17 c0 -19 -3 -24 -10 -17
-6 6 -8 18 -4 27 9 24 14 21 14 -10z m2367 2 c0 -16 -24 -28 -38 -19 -12 7 8
34 26 34 6 0 12 -7 12 -15z m-77 -29 c0 -3 -4 -8 -10 -11 -5 -3 -10 -1 -10 4
0 6 5 11 10 11 6 0 10 -2 10 -4z m-2955 -16 c3 -5 1 -10 -4 -10 -6 0 -11 5
-11 10 0 6 2 10 4 10 3 0 8 -4 11 -10z m250 -10 c3 -5 1 -10 -4 -10 -6 0 -11
5 -11 10 0 6 2 10 4 10 3 0 8 -4 11 -10z m495 -25 c-7 -8 -16 -15 -20 -15 -4
0 -10 7 -14 15 -4 11 2 15 21 15 21 0 24 -2 13 -15z m-50 -5 c0 -5 -5 -10 -11
-10 -5 0 -7 5 -4 10 3 6 8 10 11 10 2 0 4 -4 4 -10z m2140 -20 c0 -5 -2 -10
-4 -10 -3 0 -8 5 -11 10 -3 6 -1 10 4 10 6 0 11 -4 11 -10z m1170 0 c0 -5 -5
-10 -11 -10 -5 0 -7 5 -4 10 3 6 8 10 11 10 2 0 4 -4 4 -10z m-797 -25 c-3
-10 1 -15 12 -15 15 0 15 -2 4 -16 -10 -12 -25 -15 -64 -11 -27 2 -57 7 -66
11 -10 4 -23 1 -32 -8 -13 -14 -16 -14 -21 1 -11 28 16 43 82 45 35 1 65 5 68
10 9 14 24 -1 17 -17z m352 5 c3 -6 -1 -7 -9 -4 -18 7 -21 14 -7 14 6 0 13 -4
16 -10z m59 -5 c-4 -8 -8 -15 -10 -15 -2 0 -4 7 -4 15 0 8 4 15 10 15 5 0 7
-7 4 -15z m94 -10 c17 -37 15 -42 -8 -17 -21 22 -26 42 -12 42 5 0 14 -11 20
-25z m-713 -27 c1 -21 -3 -26 -20 -25 -11 1 -27 8 -35 15 -8 7 -24 19 -35 27
-18 14 -16 15 35 13 52 -3 55 -4 55 -30z m-2255 2 c0 -5 -12 -10 -27 -10 -22
0 -25 2 -13 10 20 13 40 13 40 0z m35 0 c3 -5 -1 -10 -10 -10 -9 0 -13 5 -10
10 3 6 8 10 10 10 2 0 7 -4 10 -10z m35 0 c0 -5 -4 -10 -10 -10 -5 0 -10 5
-10 10 0 6 5 10 10 10 6 0 10 -4 10 -10z m2492 -22 c-9 -9 -12 -7 -12 12 0 19
3 21 12 12 9 -9 9 -15 0 -24z m-452 -9 c0 -5 -7 -9 -15 -9 -18 0 -20 -20 -2
-21 6 -1 26 0 42 0 39 2 66 -15 46 -28 -7 -5 -10 -14 -7 -20 5 -7 -2 -11 -18
-11 -29 0 -35 16 -8 23 9 3 2 5 -15 6 -21 1 -40 -6 -53 -19 -11 -11 -24 -20
-30 -20 -5 0 -10 -5 -10 -11 0 -5 -4 -7 -10 -4 -5 3 -34 6 -64 6 -61 1 -73 13
-54 54 10 22 17 25 64 25 29 0 56 5 59 10 4 6 -8 10 -29 10 -62 0 -39 19 27
22 67 3 77 2 77 -13z m940 11 c0 -5 -2 -10 -4 -10 -3 0 -8 5 -11 10 -3 6 -1
10 4 10 6 0 11 -4 11 -10z m-1376 -15 c-4 -8 -10 -15 -15 -15 -5 0 -9 7 -9 15
0 8 7 15 15 15 9 0 12 -6 9 -15z m483 9 c-3 -3 -12 -4 -19 -1 -8 3 -5 6 6 6
11 1 17 -2 13 -5z m203 -14 c0 -5 -9 -10 -21 -10 -11 0 -17 5 -14 10 3 6 13
10 21 10 8 0 14 -4 14 -10z m519 -19 c-15 -5 -22 6 -14 19 6 9 10 9 16 -1 5
-8 4 -15 -2 -18z m-192 -7 c-9 -9 -28 6 -21 18 4 6 10 6 17 -1 6 -6 8 -13 4
-17z m383 16 c0 -5 -2 -10 -4 -10 -3 0 -8 5 -11 10 -3 6 -1 10 4 10 6 0 11 -4
11 -10z m-4225 -9 c3 -5 1 -12 -5 -16 -5 -3 -10 1 -10 9 0 18 6 21 15 7z
m3745 5 c0 -3 -4 -8 -10 -11 -5 -3 -10 -1 -10 4 0 6 5 11 10 11 6 0 10 -2 10
-4z m30 -16 c0 -5 -4 -10 -10 -10 -5 0 -10 5 -10 10 0 6 5 10 10 10 6 0 10 -4
10 -10z m-85 -19 c3 -5 2 -12 -3 -15 -12 -7 -52 4 -52 15 0 12 47 12 55 0z
m-2861 -16 c3 -8 1 -15 -4 -15 -6 0 -10 7 -10 15 0 8 2 15 4 15 2 0 6 -7 10
-15z m3647 2 c-1 -12 -15 -9 -19 4 -3 6 1 10 8 8 6 -3 11 -8 11 -12z m-341 -7
c0 -5 -9 -10 -21 -10 -11 0 -17 5 -14 10 3 6 13 10 21 10 8 0 14 -4 14 -10z
m30 0 c0 -5 -5 -10 -11 -10 -5 0 -7 5 -4 10 3 6 8 10 11 10 2 0 4 -4 4 -10z
m-4168 -42 c-7 -7 -12 -8 -12 -2 0 14 12 26 19 19 2 -3 -1 -11 -7 -17z m432 7
c3 -8 12 -15 21 -15 8 0 15 -4 15 -10 0 -5 7 -10 15 -10 21 0 19 -17 -3 -22
-9 -3 -46 -4 -82 -4 -59 1 -65 3 -62 21 5 29 10 31 27 9 15 -19 15 -19 30 0 8
11 15 26 15 33 0 18 17 16 24 -2z m-249 -15 c3 -5 1 -10 -4 -10 -6 0 -11 5
-11 10 0 6 2 10 4 10 3 0 8 -4 11 -10z m400 -39 c4 -48 -7 -52 -46 -15 -26 24
-27 28 -12 43 12 12 17 13 21 3 6 -18 22 -15 22 5 0 32 11 5 15 -36z m245 39
c0 -5 16 -10 36 -10 24 0 34 -4 31 -12 -2 -7 -10 -12 -17 -10 -6 1 -14 -7 -17
-18 -6 -23 -23 -27 -23 -5 0 8 -9 15 -19 15 -26 0 -37 18 -16 26 13 6 14 8 3
15 -10 7 -9 9 5 9 9 0 17 -4 17 -10z m3039 -4 c9 -10 8 -15 -4 -20 -17 -6 -45
2 -45 14 0 8 16 17 31 19 4 1 12 -5 18 -13z m171 -5 c0 -9 -10 -12 -35 -9 -24
3 -35 0 -35 -9 0 -7 -4 -13 -10 -13 -5 0 -10 10 -10 23 0 20 5 22 45 22 31 0
45 -4 45 -14z m224 -6 c-9 -28 -13 -30 -26 -17 -16 16 -88 16 -88 0 0 -9 -3
-8 -10 2 -15 24 5 35 69 35 57 0 60 -1 55 -20z m-3648 -22 c-11 -11 -17 4 -9
23 7 18 8 18 11 1 2 -10 1 -21 -2 -24z m93 15 c27 3 33 0 28 -12 -3 -8 -2 -18
3 -21 16 -10 12 -25 -6 -25 -9 0 -18 9 -21 20 -4 13 -14 20 -30 20 -18 0 -24
-4 -19 -15 4 -11 -1 -15 -19 -15 -14 0 -25 5 -25 10 0 6 4 10 9 10 5 0 12 12
16 27 6 24 8 26 18 13 8 -9 24 -14 46 -12z m2499 2 c-17 -27 -38 -33 -38 -11
0 23 9 31 32 31 16 0 16 -3 6 -20z m38 -7 c-10 -10 -19 5 -10 18 6 11 8 11 12
0 2 -7 1 -15 -2 -18z m112 9 c2 -7 -2 -10 -12 -6 -9 3 -16 1 -16 -6 0 -7 -8
-9 -22 -4 -30 8 -31 10 -23 24 9 14 67 8 73 -8z m302 3 c0 -8 -4 -15 -10 -15
-5 0 -10 7 -10 15 0 8 5 15 10 15 6 0 10 -7 10 -15z m35 5 c3 -5 1 -10 -4 -10
-6 0 -11 5 -11 10 0 6 2 10 4 10 3 0 8 -4 11 -10z m115 0 c0 -5 -7 -10 -16
-10 -8 0 -12 5 -9 10 3 6 10 10 16 10 5 0 9 -4 9 -10z m260 -4 c0 -15 -18 -31
-26 -23 -7 7 7 37 17 37 5 0 9 -6 9 -14z m-3830 -17 c0 -6 -4 -7 -10 -4 -5 3
-10 11 -10 16 0 6 5 7 10 4 6 -3 10 -11 10 -16z m791 7 c-10 -12 -97 -20 -113
-10 -19 12 15 22 69 22 39 -1 51 -4 44 -12z m2123 -1 c-4 -8 -10 -15 -15 -15
-5 0 -9 7 -9 15 0 8 7 15 15 15 9 0 12 -6 9 -15z m-3145 -21 c-15 -18 -49 -18
-49 0 0 8 10 16 23 18 30 5 40 -1 26 -18z m119 0 c-12 -13 -20 -14 -37 -5 -12
7 -26 9 -31 6 -6 -3 -10 -1 -10 5 0 7 14 10 34 9 19 -2 38 0 42 4 4 4 10 5 13
2 2 -3 -2 -13 -11 -21z m70 17 c11 -7 10 -10 -3 -15 -20 -7 -38 1 -30 15 7 11
16 11 33 0z m-368 -11 c13 -9 13 -11 0 -19 -9 -6 -19 -6 -27 1 -28 23 -5 39
27 18z m118 -7 c-3 -18 -20 -19 -76 -7 -37 8 -14 24 34 24 38 0 45 -3 42 -17z
m332 7 c0 -5 -4 -10 -10 -10 -5 0 -10 5 -10 10 0 6 5 10 10 10 6 0 10 -4 10
-10z m38 -15 c-3 -3 -9 2 -12 12 -6 14 -5 15 5 6 7 -7 10 -15 7 -18z m-818 0
c-12 -15 -30 -12 -30 6 0 5 10 9 21 9 18 0 19 -2 9 -15z m80 5 c0 -5 -4 -10
-10 -10 -5 0 -10 5 -10 10 0 6 5 10 10 10 6 0 10 -4 10 -10z m4040 -4 c0 -8
-51 -13 -56 -5 -3 5 9 9 25 9 17 0 31 -2 31 -4z m70 -33 c0 -8 -11 -12 -25
-11 -29 3 -32 16 -8 34 19 13 33 3 33 -23z m-2880 23 c0 -2 -7 -6 -15 -10 -8
-3 -15 -1 -15 4 0 6 7 10 15 10 8 0 15 -2 15 -4z m-1302 -28 c-3 -7 -13 -15
-23 -16 -15 -4 -16 -2 -4 12 17 19 32 21 27 4z m217 4 c17 -2 18 -4 5 -12 -10
-6 28 -9 113 -9 73 0 127 4 127 10 0 5 5 9 11 9 5 0 7 -4 4 -10 -3 -5 1 -10 9
-10 9 0 16 5 16 10 0 6 7 10 15 10 8 0 15 -7 15 -15 0 -8 5 -15 10 -15 6 0 10
5 10 10 0 6 9 10 20 10 11 0 20 -4 20 -10 0 -5 6 -7 13 -5 24 8 117 13 117 6
0 -4 14 -5 31 -3 25 4 30 2 24 -9 -5 -8 3 -3 18 9 17 17 32 22 46 17 12 -3 19
-11 15 -16 -3 -5 -10 -7 -15 -4 -5 4 -9 0 -9 -8 0 -20 -27 -40 -41 -31 -15 9
-96 13 -234 13 -16 0 -133 4 -260 10 -126 5 -242 10 -257 10 -16 1 -28 6 -28
12 0 6 6 9 12 7 7 -3 22 0 33 6 18 10 97 13 160 8z m-185 -102 c0 -5 -16 -10
-35 -10 -19 0 -35 5 -35 10 0 6 16 10 35 10 19 0 35 -4 35 -10z m42 -5 c0 -5
-5 -11 -11 -13 -6 -2 -11 4 -11 13 0 9 5 15 11 13 6 -2 11 -8 11 -13z m3718
-41 c0 -13 -54 -62 -63 -57 -5 3 4 18 19 34 26 27 44 37 44 23z m430 -94 c0
-5 -7 -10 -15 -10 -8 0 -15 5 -15 10 0 6 7 10 15 10 8 0 15 -4 15 -10z m84
-14 c-3 -9 -10 -16 -15 -16 -14 0 -11 28 4 33 16 6 19 3 11 -17z m96 5 c0 -13
-26 -32 -33 -24 -14 13 -6 33 13 33 11 0 20 -4 20 -9z m84 -6 c-7 -17 -20 -20
-28 -6 -7 10 3 21 20 21 8 0 11 -6 8 -15z m296 7 c0 -5 -6 -16 -13 -27 -16
-20 -31 -7 -21 19 6 16 34 23 34 8z m-210 -11 c0 -6 -4 -13 -10 -16 -5 -3 -10
1 -10 9 0 9 5 16 10 16 6 0 10 -4 10 -9z m300 -12 c0 -14 -5 -19 -17 -17 -23
4 -28 25 -6 31 10 3 19 5 21 6 1 0 2 -8 2 -20z m110 0 c0 -4 -5 -11 -10 -14
-13 -8 -42 14 -35 25 6 10 45 1 45 -11z m-990 -54 c0 -8 -7 -15 -15 -15 -8 0
-15 7 -15 15 0 8 7 15 15 15 8 0 15 -7 15 -15z m100 -5 c0 -5 -7 -10 -15 -10
-8 0 -15 5 -15 10 0 6 7 10 15 10 8 0 15 -4 15 -10z m90 -5 c0 -8 -4 -15 -10
-15 -5 0 -10 7 -10 15 0 8 5 15 10 15 6 0 10 -7 10 -15z m745 6 c3 -5 1 -12
-5 -16 -5 -3 -10 1 -10 9 0 18 6 21 15 7z m-635 -11 c0 -5 -2 -10 -4 -10 -3 0
-8 5 -11 10 -3 6 -1 10 4 10 6 0 11 -4 11 -10z m140 -4 c0 -16 -34 -31 -50
-21 -5 3 -10 1 -10 -6 0 -10 -3 -10 -11 -2 -7 7 -9 19 -6 27 8 21 77 22 77 2z
m178 3 c43 2 57 -13 22 -24 -11 -3 -20 -11 -20 -16 0 -6 -15 -2 -32 9 -34 20
-57 19 -71 -4 -4 -8 -13 -14 -18 -14 -6 0 -8 4 -4 9 3 5 1 13 -5 16 -8 5 -7
11 2 22 9 11 21 13 48 8 19 -4 54 -7 78 -6z m160 -22 c2 -10 -4 -20 -15 -24
-10 -4 -21 -11 -24 -16 -10 -14 -29 1 -29 22 0 39 61 56 68 18z m88 -13 c-5
-14 -9 -14 -22 -3 -14 12 -14 14 3 20 23 8 27 4 19 -17z m144 3 c0 -7 -6 -22
-14 -33 -19 -24 -41 -6 -31 25 7 23 45 29 45 8z m-210 -67 c0 -5 -2 -10 -4
-10 -3 0 -8 5 -11 10 -3 6 -1 10 4 10 6 0 11 -4 11 -10z m180 0 c0 -5 -4 -10
-10 -10 -5 0 -10 5 -10 10 0 6 5 10 10 10 6 0 10 -4 10 -10z m-220 -10 c0 -5
-4 -10 -10 -10 -5 0 -10 5 -10 10 0 6 5 10 10 10 6 0 10 -4 10 -10z m-845 -19
c-8 -13 -35 -15 -35 -2 0 5 8 11 18 13 21 5 26 2 17 -11z m502 -12 c14 -14
356 -28 365 -14 11 15 10 -9 -2 -41 -6 -15 -13 -24 -17 -21 -3 4 -12 -1 -18
-10 -11 -15 -15 -15 -29 -4 -9 7 -16 20 -16 27 0 15 -51 20 -64 7 -13 -14 -53
-13 -65 1 -15 18 -91 10 -108 -11 -15 -20 -83 -9 -83 12 0 19 -19 19 -40 0
-20 -18 -40 -13 -58 16 -19 29 -8 37 46 31 31 -2 52 0 56 7 9 14 19 14 33 0z
m-339 -11 c-7 -20 -48 -23 -48 -4 0 11 9 16 26 16 16 0 24 -5 22 -12z m112 2
c0 -5 -4 -10 -10 -10 -5 0 -10 5 -10 10 0 6 5 10 10 10 6 0 10 -4 10 -10z
m648 -12 c-3 -7 -11 -13 -18 -13 -7 0 -15 6 -17 13 -3 7 4 12 17 12 13 0 20
-5 18 -12z m140 -15 c2 -7 -3 -13 -12 -13 -9 0 -16 -3 -16 -7 -1 -15 -49 -43
-64 -37 -28 11 -19 42 14 49 17 4 30 11 30 16 0 15 43 7 48 -8z m-778 -19 c0
-8 -5 -12 -10 -9 -6 4 -8 11 -5 16 9 14 15 11 15 -7z m110 -34 c0 -5 -4 -10
-10 -10 -5 0 -10 5 -10 10 0 6 5 10 10 10 6 0 10 -4 10 -10z m117 -16 c-3 -3
-12 -4 -19 -1 -8 3 -5 6 6 6 11 1 17 -2 13 -5z m298 -14 c3 -5 1 -10 -4 -10
-6 0 -11 5 -11 10 0 6 2 10 4 10 3 0 8 -4 11 -10z m-35 -10 c0 -5 -2 -10 -4
-10 -3 0 -8 5 -11 10 -3 6 -1 10 4 10 6 0 11 -4 11 -10z m-880 -7 c-1 -28 -15
-53 -30 -53 -26 0 -44 25 -28 37 24 19 58 28 58 16z m330 -43 c0 -5 -7 -10
-15 -10 -8 0 -15 5 -15 10 0 6 7 10 15 10 8 0 15 -4 15 -10z m-302 -54 c57
-65 48 -159 -19 -207 -43 -31 -58 -28 -79 19 l-19 43 24 21 c29 25 31 49 9 83
-10 15 -13 32 -9 42 5 10 7 21 7 26 -1 4 11 7 27 7 20 0 38 -10 59 -34z m672
24 c0 -5 -7 -10 -16 -10 -8 0 -12 5 -9 10 3 6 10 10 16 10 5 0 9 -4 9 -10z
m318 -37 c4 -29 -33 -32 -48 -4 -15 29 -13 33 18 29 19 -2 28 -9 30 -25z
m-798 -93 c0 -5 -5 -10 -11 -10 -5 0 -7 5 -4 10 3 6 8 10 11 10 2 0 4 -4 4
-10z m-1503 -32 c26 -24 31 -50 8 -42 -8 4 -15 11 -15 17 0 6 -7 19 -17 29
-23 25 -4 23 24 -4z m1437 -4 c23 -9 20 -23 -4 -17 -11 3 -20 9 -20 14 0 11 3
11 24 3z m406 -4 c0 -5 -4 -10 -10 -10 -5 0 -10 5 -10 10 0 6 5 10 10 10 6 0
10 -4 10 -10z m149 -56 c8 -7 -30 -16 -44 -10 -27 10 -17 27 13 20 15 -4 29
-8 31 -10z m79 -19 c-3 -3 -9 2 -12 12 -6 14 -5 15 5 6 7 -7 10 -15 7 -18z
m176 0 c-4 -8 -11 -12 -16 -9 -6 4 -5 10 3 15 19 12 19 11 13 -6z m176 -15
c-9 -6 -19 -5 -25 1 -6 6 -5 13 5 19 9 6 19 5 25 -1 6 -6 5 -13 -5 -19z
m-1296 -5 c3 -9 -1 -18 -10 -22 -19 -7 -28 2 -21 22 8 19 23 19 31 0z m481
-19 c55 -8 102 -15 105 -16 3 -1 -5 -5 -18 -10 -12 -5 -28 -7 -36 -4 -9 3 -17
-3 -21 -15 -4 -13 -15 -21 -30 -21 -13 0 -32 -3 -42 -6 -15 -6 -16 -4 -5 7 17
18 15 30 -3 23 -8 -4 -15 -1 -15 5 0 6 6 11 13 11 7 1 5 6 -6 14 -13 10 -27
11 -61 3 -50 -11 -76 -5 -76 19 0 18 -11 19 195 -10z m-535 -53 c43 -10 53
-23 34 -44 -13 -14 -21 -16 -35 -8 -11 5 -24 7 -29 4 -5 -3 -16 8 -25 24 -20
40 -19 45 8 36 12 -3 33 -9 47 -12z m276 -14 c38 -23 41 -34 17 -61 -15 -17
-15 -18 0 -18 10 0 17 5 17 10 0 16 20 12 27 -6 7 -18 -29 -59 -70 -80 -38
-20 -58 -1 -50 49 4 29 11 37 34 42 16 4 27 10 24 15 -3 4 -13 6 -24 3 -14 -3
-20 2 -25 22 -6 25 -1 45 11 45 3 0 21 -9 39 -21z m344 -29 c0 -5 -4 -10 -10
-10 -5 0 -10 5 -10 10 0 6 5 10 10 10 6 0 10 -4 10 -10z m-1651 -65 c17 -19
37 -35 45 -35 17 0 46 -37 46 -59 0 -11 -3 -11 -18 2 -26 24 -32 21 -32 -15 0
-52 22 -67 91 -61 47 5 59 3 59 -9 0 -24 -22 -38 -61 -38 -21 0 -40 -4 -44 -9
-3 -6 -19 -4 -40 5 -55 23 -54 16 8 -39 52 -46 56 -54 45 -70 -13 -17 -16 -17
-58 7 -59 34 -70 33 -36 -3 35 -37 27 -55 -23 -47 l-36 6 28 -23 c15 -12 27
-25 27 -29 0 -10 -50 -16 -56 -7 -3 5 -13 9 -23 9 -26 0 -69 51 -91 109 -27
68 -26 139 2 198 23 49 106 143 125 143 6 0 25 -16 42 -35z m984 -169 c8 -19
19 -49 22 -67 5 -26 18 -41 53 -64 65 -43 71 -57 47 -102 -11 -21 -31 -43 -43
-49 -13 -6 -28 -16 -34 -22 -5 -5 -27 -8 -48 -5 -22 3 -40 1 -44 -6 -9 -15
-49 -14 -64 1 -18 18 -14 84 8 128 11 22 20 46 20 53 0 8 7 21 16 28 13 10 15
27 12 76 -4 59 -3 63 17 63 14 0 27 -11 38 -34z m-1790 -48 c-2 -5 6 -8 19 -8
17 0 68 -46 190 -174 92 -95 181 -194 198 -220 29 -42 204 -197 251 -221 14
-7 30 -44 53 -120 55 -181 63 -244 49 -388 -7 -82 -17 -89 -113 -75 -36 5 -77
9 -91 9 -25 -1 -204 31 -239 43 -30 9 -105 16 -92 8 9 -6 3 -15 -19 -31 -27
-20 -35 -21 -56 -12 -14 7 -27 10 -28 9 -2 -2 -7 -23 -12 -48 l-10 -45 -7 57
c-8 56 -9 57 -56 77 -27 12 -53 21 -59 21 -17 0 -22 19 -10 41 9 17 8 23 -2
30 -21 13 -39 11 -39 -6 0 -8 -4 -15 -10 -15 -5 0 -7 -7 -3 -16 5 -14 1 -16
-19 -12 -14 3 -37 -1 -49 -9 -24 -14 -24 -14 -1 -8 25 7 58 -18 48 -38 -33
-63 -46 -68 -40 -17 l3 29 -36 -15 c-30 -13 -38 -13 -45 -2 -6 9 -7 6 -3 -8 4
-14 0 -24 -10 -28 -8 -3 -15 -13 -15 -21 0 -10 5 -13 12 -9 8 5 9 -2 5 -24 -6
-31 6 -46 16 -19 2 6 8 9 12 4 5 -4 3 -13 -3 -19 -17 -17 -64 6 -55 28 3 9 0
20 -7 24 -11 7 -11 14 -2 35 7 15 10 31 6 36 -7 11 5 49 14 47 20 -5 81 15 86
28 8 22 -22 29 -43 10 -23 -21 -26 -20 -29 9 -1 18 6 29 28 40 35 18 36 23 13
41 -16 12 -15 13 14 14 26 0 31 -3 27 -17 -5 -14 -4 -15 4 -4 6 8 15 10 23 6
9 -6 11 -4 6 8 -3 9 -12 73 -19 142 -10 104 -15 126 -30 131 -9 3 -26 0 -37
-6 -22 -11 -71 -4 -71 11 0 5 15 9 33 9 18 0 38 5 44 11 8 8 17 8 31 0 10 -6
22 -7 26 -4 12 13 6 44 -11 50 -10 4 -21 11 -25 17 -5 7 -8 7 -8 -1 0 -7 -9
-13 -20 -13 -11 0 -20 -4 -20 -10 0 -5 5 -10 10 -10 6 0 10 -7 10 -15 0 -9 -6
-12 -15 -9 -8 4 -15 12 -15 20 0 8 -2 14 -4 14 -2 0 -13 3 -23 6 -14 4 -15 4
-4 -4 15 -11 6 -36 -10 -27 -19 12 -9 52 16 65 14 7 25 17 25 22 0 14 -18 9
-24 -7 -3 -8 -10 -15 -16 -15 -16 0 -12 26 10 51 16 20 19 21 20 7 0 -23 30
-38 75 -38 35 0 37 -2 31 -25 -11 -42 11 -28 27 18 9 26 12 63 9 100 -2 32 0
84 6 115 6 31 16 104 23 162 7 58 16 109 20 115 5 5 9 28 9 50 0 23 3 44 6 47
8 9 53 4 47 -4z m-233 -198 c0 -16 -4 -30 -9 -30 -5 0 -11 14 -13 30 -3 20 0
30 9 30 8 0 13 -12 13 -30z m50 -24 c-18 -18 -34 8 -19 35 l12 23 9 -24 c5
-15 5 -27 -2 -34z m2673 -16 c38 -6 80 -7 94 -4 22 6 25 4 20 -11 -6 -13 -3
-16 10 -10 21 8 21 8 51 6 12 0 22 -5 22 -10 0 -8 -65 -21 -135 -26 -16 -2
-54 -8 -84 -14 -76 -16 -84 -15 -76 9 4 14 2 20 -9 20 -13 0 -15 16 -7 59 1 2
11 1 24 -3 12 -3 53 -11 90 -16z m-1903 -42 c0 -6 -7 -5 -15 2 -8 7 -15 17
-15 22 0 6 7 5 15 -2 8 -7 15 -17 15 -22z m-838 -10 c-7 -7 -12 -8 -12 -2 0 6
3 14 7 17 3 4 9 5 12 2 2 -3 -1 -11 -7 -17z m63 -6 c-3 -3 -11 0 -18 7 -9 10
-8 11 6 5 10 -3 15 -9 12 -12z m-78 -43 c-6 -10 -13 -15 -15 -9 -6 17 7 42 18
35 6 -4 5 -13 -3 -26z m883 -40 c0 -5 -4 -9 -8 -9 -15 0 -32 24 -32 45 1 19 1
19 20 -4 11 -13 20 -27 20 -32z m-798 -49 c10 0 18 -4 18 -10 0 -5 -6 -10 -14
-10 -26 0 -46 12 -46 28 0 12 3 13 12 4 7 -7 20 -12 30 -12z m3 -47 c27 -13
35 -22 34 -42 -1 -17 -3 -20 -6 -8 -2 9 -9 17 -14 17 -5 0 -7 -11 -3 -25 9
-34 -2 -31 -41 11 -27 29 -31 39 -22 50 15 17 10 17 52 -3z m775 -73 c0 -5 -4
-10 -10 -10 -5 0 -10 5 -10 10 0 6 5 10 10 10 6 0 10 -4 10 -10z m-946 -26 c3
-8 2 -12 -4 -9 -6 3 -10 10 -10 16 0 14 7 11 14 -7z m51 -172 c-5 -28 -9 -31
-20 -22 -8 7 -17 34 -21 60 -4 27 -13 51 -20 54 -25 10 -15 27 11 20 17 -4 25
-2 26 7 0 8 7 -8 15 -36 8 -27 12 -65 9 -83z m1306 74 c27 -57 -26 -112 -63
-66 -34 41 -18 90 29 90 15 0 27 -9 34 -24z m947 -13 c37 -101 52 -154 52
-185 0 -19 3 -38 8 -42 4 -4 7 -11 7 -14 1 -4 7 -18 15 -32 21 -38 26 -183 7
-210 l-15 -21 -21 29 c-11 17 -21 41 -21 55 0 13 -7 30 -15 37 -9 7 -14 19
-11 26 3 7 -2 18 -10 24 -8 7 -14 23 -14 36 0 12 -4 26 -10 29 -5 3 -10 15
-10 26 0 11 -7 30 -15 43 -25 37 -29 107 -11 169 19 65 46 77 64 30z m-2168
-73 c0 -5 -6 -7 -14 -4 -21 8 -32 -17 -12 -28 23 -13 20 -27 -4 -21 -22 6 -26
33 -8 51 14 14 38 16 38 2z m25 -80 c-3 -43 1 -55 21 -75 35 -35 30 -44 -23
-42 -27 0 -55 -1 -63 -3 -12 -4 -15 5 -15 43 0 26 -3 47 -7 47 -5 0 -8 5 -8
10 0 6 8 10 19 10 10 0 24 7 31 15 7 8 17 12 23 8 6 -4 8 0 4 9 -3 9 -3 19 0
22 15 15 20 2 18 -44z m-38 -164 c-7 -21 -37 -19 -37 2 0 15 5 19 20 15 12 -3
19 -11 17 -17z m1628 -56 c3 -6 -1 -7 -9 -4 -18 7 -21 14 -7 14 6 0 13 -4 16
-10z m155 -25 c10 -12 6 -18 -22 -35 -18 -11 -36 -20 -39 -20 -15 0 -16 29 -3
49 18 24 46 27 64 6z m-1722 -153 c2 -7 -7 -12 -22 -12 -27 0 -35 15 -13 23
17 7 30 3 35 -11z m617 -62 c3 -5 1 -10 -4 -10 -6 0 -11 5 -11 10 0 6 2 10 4
10 3 0 8 -4 11 -10z m-872 -74 c4 -10 0 -12 -14 -9 -22 6 -26 23 -5 23 8 0 16
-6 19 -14z"/>
<path d="M2940 4330 c0 -5 -9 -10 -20 -10 -11 0 -20 -5 -20 -11 0 -6 9 -9 20
-6 19 5 46 -23 34 -36 -3 -3 -1 -8 5 -12 12 -7 15 42 5 69 -7 18 -24 22 -24 6z"/>
<path d="M195 2950 c-4 -6 5 -10 20 -10 15 0 24 4 20 10 -3 6 -12 10 -20 10
-8 0 -17 -4 -20 -10z"/>
<path d="M3822 2231 c2 -7 7 -12 11 -12 12 1 9 15 -3 20 -7 2 -11 -2 -8 -8z"/>
<path d="M3805 2070 c4 -6 11 -8 16 -5 14 9 11 15 -7 15 -8 0 -12 -5 -9 -10z"/>
<path d="M1585 570 c-3 -5 -1 -10 4 -10 6 0 11 5 11 10 0 6 -2 10 -4 10 -3 0
-8 -4 -11 -10z"/>
<path d="M4340 3900 c-6 -11 -8 -20 -6 -20 3 0 10 9 16 20 6 11 8 20 6 20 -3
0 -10 -9 -16 -20z"/>
<path d="M4223 3875 c0 -22 2 -30 4 -17 2 12 2 30 0 40 -3 9 -5 -1 -4 -23z"/>
<path d="M4258 3883 c7 -3 16 -2 19 1 4 3 -2 6 -13 5 -11 0 -14 -3 -6 -6z"/>
<path d="M4160 3850 c6 -11 13 -20 16 -20 2 0 0 9 -6 20 -6 11 -13 20 -16 20
-2 0 0 -9 6 -20z"/>
<path d="M4275 3809 c-4 -6 -5 -12 -2 -15 2 -3 7 2 10 11 7 17 1 20 -8 4z"/>
<path d="M3930 3786 c0 -2 7 -7 16 -10 8 -3 12 -2 9 4 -6 10 -25 14 -25 6z"/>
<path d="M3970 3759 c0 -5 5 -7 10 -4 6 3 10 8 10 11 0 2 -4 4 -10 4 -5 0 -10
-5 -10 -11z"/>
<path d="M2200 3710 c0 -16 83 -92 91 -82 8 9 20 72 13 72 -2 0 -16 -7 -29
-16 -23 -15 -25 -15 -50 12 -14 15 -25 21 -25 14z"/>
<path d="M1715 3683 c0 -21 1 -22 13 -6 6 9 12 20 12 23 0 4 -6 7 -12 7 -7 0
-13 -11 -13 -24z"/>
<path d="M2012 3660 c0 -19 2 -27 5 -17 2 9 2 25 0 35 -3 9 -5 1 -5 -18z"/>
<path d="M4735 3670 c3 -5 8 -10 11 -10 2 0 4 5 4 10 0 6 -5 10 -11 10 -5 0
-7 -4 -4 -10z"/>
<path d="M1637 3650 c-3 -11 -2 -20 3 -20 4 0 10 9 13 20 3 11 2 20 -3 20 -4
0 -10 -9 -13 -20z"/>
<path d="M4993 3649 c-6 -6 -9 -17 -7 -24 3 -7 1 -16 -5 -20 -13 -7 -15 -35
-3 -35 7 0 34 82 28 87 -1 2 -7 -2 -13 -8z"/>
<path d="M1562 3630 c0 -14 2 -19 5 -12 2 6 2 18 0 25 -3 6 -5 1 -5 -13z"/>
<path d="M3925 3620 c3 -5 8 -10 11 -10 2 0 4 5 4 10 0 6 -5 10 -11 10 -5 0
-7 -4 -4 -10z"/>
<path d="M5010 3602 c0 -12 19 -26 26 -19 2 2 -2 10 -11 17 -9 8 -15 8 -15 2z"/>
<path d="M1408 3522 c-3 -12 3 -22 18 -29 23 -11 23 -11 8 18 -17 34 -20 35
-26 11z"/>
<path d="M1756 3414 c-20 -20 -20 -25 1 -17 11 4 14 3 9 -5 -4 -7 -2 -12 3
-12 6 0 11 11 11 25 0 29 -3 30 -24 9z"/>
<path d="M5107 3093 c-4 -3 -7 -23 -7 -43 0 -35 -2 -37 -27 -32 -27 4 -27 4
-8 -12 19 -15 19 -15 -14 -16 -25 0 -32 3 -27 15 3 9 0 15 -9 15 -8 0 -15 6
-15 13 0 8 -3 8 -9 -2 -10 -16 -33 -23 -68 -22 -13 0 -23 -4 -23 -9 0 -14 64
-12 78 2 10 10 14 8 18 -10 7 -25 28 -28 71 -10 15 6 33 10 39 10 7 -2 12 20
13 53 2 55 0 61 -12 48z"/>
<path d="M4930 3036 c0 -9 30 -14 35 -6 4 6 -3 10 -14 10 -12 0 -21 -2 -21 -4z"/>
<path d="M4810 2970 c0 -5 5 -10 11 -10 5 0 7 5 4 10 -3 6 -8 10 -11 10 -2 0
-4 -4 -4 -10z"/>
<path d="M4770 2960 c0 -5 7 -10 15 -10 8 0 15 5 15 10 0 6 -7 10 -15 10 -8 0
-15 -4 -15 -10z"/>
<path d="M4828 2943 c7 -3 16 -2 19 1 4 3 -2 6 -13 5 -11 0 -14 -3 -6 -6z"/>
<path d="M4616 2925 c4 -8 8 -15 10 -15 2 0 4 7 4 15 0 8 -4 15 -10 15 -5 0
-7 -7 -4 -15z"/>
<path d="M5028 2933 c12 -2 30 -2 40 0 9 3 -1 5 -23 4 -22 0 -30 -2 -17 -4z"/>
<path d="M5100 2930 c0 -5 5 -10 10 -10 6 0 10 5 10 10 0 6 -4 10 -10 10 -5 0
-10 -4 -10 -10z"/>
<path d="M4681 2908 c-1 -14 7 -18 30 -18 17 0 47 -7 66 -17 30 -14 36 -14 44
-2 11 17 11 21 0 38 -8 12 -16 13 -47 3 -30 -9 -40 -9 -46 1 -6 9 -8 9 -8 0 0
-7 -6 -13 -14 -13 -8 0 -17 6 -19 13 -3 7 -6 5 -6 -5z"/>
<path d="M4479 2900 c-21 -14 -2 -24 23 -13 17 7 19 11 6 15 -8 4 -21 2 -29
-2z"/>
<path d="M4530 2890 c0 -13 5 -18 15 -14 12 5 13 10 4 20 -15 19 -19 18 -19
-6z"/>
<path d="M4135 2889 c-10 -15 3 -25 16 -12 7 7 7 13 1 17 -6 3 -14 1 -17 -5z"/>
<path d="M4875 2890 c-3 -5 1 -10 9 -10 8 0 18 5 21 10 3 6 -1 10 -9 10 -8 0
-18 -4 -21 -10z"/>
<path d="M4170 2850 c0 -5 7 -10 15 -10 8 0 15 5 15 10 0 6 -7 10 -15 10 -8 0
-15 -4 -15 -10z"/>
<path d="M2580 2780 c0 -5 5 -10 10 -10 6 0 10 5 10 10 0 6 -4 10 -10 10 -5 0
-10 -4 -10 -10z"/>
<path d="M2780 2770 c0 -5 5 -10 10 -10 6 0 10 5 10 10 0 6 -4 10 -10 10 -5 0
-10 -4 -10 -10z"/>
<path d="M2568 2714 c-9 -8 3 -44 13 -38 5 3 10 -5 10 -18 1 -14 3 -17 6 -7 4
17 -21 72 -29 63z"/>
<path d="M2664 2696 c-3 -14 -3 -29 0 -34 3 -5 1 -23 -4 -40 -8 -28 -5 -34 21
-53 16 -11 29 -16 29 -10 0 6 -4 11 -10 11 -5 0 -10 9 -10 20 0 17 5 19 44 16
47 -5 68 13 45 40 -6 7 -8 21 -5 31 4 14 1 19 -13 19 -16 0 -17 -4 -10 -18 7
-14 6 -18 -5 -18 -8 0 -18 5 -21 10 -3 6 -18 7 -32 4 -24 -6 -25 -5 -19 20 3
14 4 26 1 26 -2 0 -7 -11 -11 -24z"/>
<path d="M2708 2693 c7 -3 16 -2 19 1 4 3 -2 6 -13 5 -11 0 -14 -3 -6 -6z"/>
<path d="M0 2522 l0 -120 43 2 c44 3 103 -10 126 -28 7 -6 41 -10 74 -9 34 1
67 -3 74 -9 7 -5 21 -7 33 -3 12 4 20 2 20 -5 0 -7 18 -11 48 -10 77 3 85 1
78 -15 -4 -12 4 -15 40 -15 28 0 43 -4 39 -10 -4 -7 8 -8 34 -4 30 5 41 3 41
-6 0 -9 10 -11 32 -6 44 9 138 -14 138 -34 0 -9 3 -11 8 -5 12 18 162 2 162
-17 0 -5 7 -8 17 -6 11 2 32 49 68 156 46 132 50 152 35 152 -10 0 -22 -6 -29
-13 -9 -11 -28 -11 -105 -1 -52 6 -100 15 -108 20 -7 5 -21 7 -30 6 -10 -2
-18 1 -18 6 0 5 -37 10 -82 10 -103 0 -146 5 -180 19 -15 7 -56 10 -96 7 -42
-2 -73 0 -77 6 -3 5 -17 10 -30 10 -13 0 -27 5 -30 10 -4 6 -36 10 -73 10 -67
0 -101 2 -199 16 l-53 7 0 -121z m130 8 c0 -5 -5 -10 -11 -10 -5 0 -7 5 -4 10
3 6 8 10 11 10 2 0 4 -4 4 -10z m175 -19 c-3 -6 -11 -11 -17 -11 -6 0 -6 6 2
15 14 17 26 13 15 -4z m25 -31 c0 -5 -4 -10 -10 -10 -5 0 -10 5 -10 10 0 6 5
10 10 10 6 0 10 -4 10 -10z m87 -6 c-3 -3 -12 -4 -19 -1 -8 3 -5 6 6 6 11 1
17 -2 13 -5z m98 -14 c-3 -5 -16 -10 -28 -9 -20 1 -20 2 3 9 14 4 26 8 28 9 2
1 0 -3 -3 -9z m155 -29 c0 -4 -11 -6 -25 -3 -14 2 -25 6 -25 8 0 2 11 4 25 4
14 0 25 -4 25 -9z m70 -1 c0 -5 -10 -10 -22 -10 -19 0 -20 2 -8 10 19 13 30
13 30 0z m145 -30 c7 -12 -2 -12 -30 0 -19 8 -19 9 2 9 12 1 25 -3 28 -9z
m105 0 c0 -5 7 -10 15 -10 20 0 19 -16 0 -24 -9 -3 -18 1 -21 8 -3 8 -14 12
-27 9 -22 -4 -22 -4 -3 11 23 18 36 20 36 6z"/>
<path d="M34 2323 c8 -8 94 -32 116 -32 8 0 -10 8 -40 19 -57 20 -89 25 -76
13z"/>
<path d="M0 2160 c0 -158 -15 -138 120 -161 41 -6 79 -16 84 -21 6 -4 23 -8
38 -8 15 0 28 -4 28 -8 0 -5 24 -13 53 -19 28 -6 77 -18 107 -27 30 -9 71 -19
90 -22 77 -12 79 -13 77 -40 -2 -29 28 -57 41 -38 10 15 55 44 67 44 5 0 3 -5
-5 -10 -8 -5 -10 -10 -4 -10 5 0 15 5 21 11 8 8 18 6 37 -6 15 -10 29 -15 32
-12 3 3 30 -1 60 -8 41 -9 56 -10 59 -1 2 6 9 29 14 51 6 22 24 82 41 133 16
51 30 97 30 102 0 11 -89 54 -109 52 -33 -4 -68 -2 -111 7 -25 6 -72 15 -105
22 -33 6 -65 16 -72 21 -8 7 -23 2 -46 -16 -32 -25 -67 -27 -67 -5 0 5 -7 9
-16 9 -8 0 -12 5 -9 10 3 6 23 10 43 10 l37 1 -27 14 c-15 8 -30 24 -33 36 -8
23 -31 20 -29 -3 1 -13 -7 -15 -37 -11 -25 4 -39 2 -39 -6 0 -6 9 -11 19 -11
11 0 23 -4 26 -10 4 -6 -5 -7 -24 -4 -23 5 -32 2 -40 -15 -15 -28 -57 -27
-116 0 -39 18 -44 24 -33 36 11 14 7 15 -29 12 -23 -3 -39 -1 -37 3 3 5 -3 9
-13 10 -24 2 -35 4 -53 11 -8 3 -27 7 -42 10 l-28 4 0 -137z m460 -150 c0 -5
-7 -10 -15 -10 -8 0 -15 5 -15 10 0 6 7 10 15 10 8 0 15 -4 15 -10z m410 -60
c0 -5 -4 -10 -10 -10 -5 0 -10 5 -10 10 0 6 5 10 10 10 6 0 10 -4 10 -10z"/>
<path d="M235 2276 c38 -17 105 -27 105 -16 0 9 -26 15 -95 25 l-40 5 30 -14z"/>
<path d="M2776 2182 c-2 -4 4 -9 15 -9 11 -1 17 2 14 8 -7 11 -22 12 -29 1z"/>
<path d="M2615 2030 c3 -5 8 -10 11 -10 2 0 4 5 4 10 0 6 -5 10 -11 10 -5 0
-7 -4 -4 -10z"/>
<path d="M13 1933 c-10 -3 -13 -41 -13 -139 l0 -134 30 0 c22 0 28 -4 24 -15
-5 -12 6 -15 65 -15 41 0 71 -4 71 -10 0 -5 8 -10 18 -10 15 -1 15 -2 -2 -15
-18 -14 -16 -15 27 -15 48 0 56 -7 35 -28 -15 -15 36 -35 80 -30 32 4 46 -14
20 -26 -7 -2 19 -3 58 0 58 4 73 2 77 -10 4 -9 13 -13 22 -10 9 4 21 0 28 -9
14 -16 83 -30 172 -33 33 -1 64 -3 69 -3 6 -1 1 -8 -10 -16 -17 -13 -13 -14
51 -15 73 0 111 -12 80 -24 -9 -3 -27 -6 -39 -6 -22 0 -66 -30 -66 -44 0 -4 9
-5 20 -1 27 8 50 -37 33 -65 -10 -15 -8 -19 12 -22 14 -3 30 2 40 11 13 13 17
13 24 3 7 -11 11 -11 24 2 8 9 31 16 50 16 30 0 36 4 41 28 4 15 9 34 12 43 3
12 -9 19 -53 29 -52 11 -55 14 -38 26 17 12 17 14 2 14 -9 0 -17 5 -17 10 0 6
-6 10 -13 10 -18 0 -53 27 -45 35 5 6 132 35 151 35 5 0 5 -5 2 -10 -4 -6 -2
-16 3 -23 6 -7 12 -23 14 -37 3 -16 7 -2 12 37 7 53 12 62 32 67 13 4 36 4 52
1 15 -3 -4 9 -43 27 -38 18 -112 54 -164 80 -91 47 -94 48 -124 33 -38 -19
-40 -19 -33 3 4 13 -4 21 -34 34 -24 10 -42 13 -46 7 -4 -6 -10 -6 -17 0 -7 5
-34 12 -61 16 l-49 8 24 18 24 19 -27 0 c-16 0 -28 5 -28 11 0 5 -4 8 -10 4
-5 -3 -7 -12 -4 -19 4 -10 -4 -12 -33 -7 -32 6 -38 10 -35 29 2 12 -3 24 -10
26 -7 2 -39 11 -72 21 -32 9 -70 19 -85 21 -14 3 -42 9 -62 13 -20 5 -55 8
-78 7 -26 -1 -41 3 -41 11 0 7 -9 17 -20 23 -22 12 -106 20 -127 13z m278 -72
c-8 -5 -20 -7 -28 -4 -21 8 -15 13 15 13 20 0 23 -3 13 -9z m-261 -41 c0 -5
-4 -10 -10 -10 -5 0 -10 5 -10 10 0 6 5 10 10 10 6 0 10 -4 10 -10z m190 -50
c0 -5 -4 -10 -10 -10 -5 0 -10 5 -10 10 0 6 5 10 10 10 6 0 10 -4 10 -10z
m-30 -22 c0 -5 -11 -8 -25 -8 -14 0 -25 4 -25 9 0 5 11 8 25 7 14 0 25 -4 25
-8z m90 -33 c0 -16 -35 -21 -45 -6 -4 8 9 15 38 20 4 0 7 -6 7 -14z m100 -34
c0 -5 -9 -11 -20 -14 -22 -6 -29 18 -7 26 14 5 27 -1 27 -12z m60 -21 c0 -5
-7 -10 -15 -10 -8 0 -15 5 -15 10 0 6 7 10 15 10 8 0 15 -4 15 -10z m110 -15
c0 -8 -7 -15 -15 -15 -16 0 -20 12 -8 23 11 12 23 8 23 -8z m-79 -48 c-10 -9
-11 -8 -5 6 3 10 9 15 12 12 3 -3 0 -11 -7 -18z m419 13 c0 -5 -5 -10 -11 -10
-5 0 -7 5 -4 10 3 6 8 10 11 10 2 0 4 -4 4 -10z m-150 -10 c0 -5 -4 -10 -10
-10 -5 0 -10 5 -10 10 0 6 5 10 10 10 6 0 10 -4 10 -10z m115 -30 c3 -5 1 -10
-4 -10 -6 0 -11 5 -11 10 0 6 2 10 4 10 3 0 8 -4 11 -10z m45 0 c0 -5 -2 -10
-4 -10 -3 0 -8 5 -11 10 -3 6 -1 10 4 10 6 0 11 -4 11 -10z m-40 -34 c0 -2 -9
-6 -20 -9 -11 -3 -20 -1 -20 4 0 5 9 9 20 9 11 0 20 -2 20 -4z m180 -6 c0 -5
-7 -10 -15 -10 -8 0 -15 5 -15 10 0 6 7 10 15 10 8 0 15 -4 15 -10z m-160 -30
c0 -5 -7 -10 -15 -10 -8 0 -15 5 -15 10 0 6 7 10 15 10 8 0 15 -4 15 -10z
m165 -201 c-8 -12 -35 -12 -35 0 0 11 22 20 33 14 4 -2 5 -9 2 -14z m-118 -25
c-3 -3 -12 -4 -19 -1 -8 3 -5 6 6 6 11 1 17 -2 13 -5z"/>
<path d="M3180 1929 c0 -5 5 -7 10 -4 6 3 10 8 10 11 0 2 -4 4 -10 4 -5 0 -10
-5 -10 -11z"/>
<path d="M390 1880 c0 -5 7 -10 16 -10 8 0 12 5 9 10 -3 6 -10 10 -16 10 -5 0
-9 -4 -9 -10z"/>
<path d="M4757 1770 c-14 -11 -31 -20 -38 -20 -10 0 -9 -4 2 -15 18 -19 78
-30 112 -21 24 6 24 6 8 41 -19 40 -45 45 -84 15z"/>
<path d="M678 1773 c6 -2 18 -2 25 0 6 3 1 5 -13 5 -14 0 -19 -2 -12 -5z"/>
<path d="M760 1765 c-10 -12 -7 -15 17 -20 15 -4 35 -9 43 -11 11 -3 11 -1 -2
9 -13 11 -15 16 -6 25 9 9 6 12 -14 12 -14 0 -31 -7 -38 -15z"/>
<path d="M830 1772 c0 -16 13 -20 35 -11 11 4 15 8 8 8 -6 1 -18 4 -27 7 -9 3
-16 1 -16 -4z"/>
<path d="M5015 1720 c3 -5 24 -10 45 -10 21 0 42 5 45 10 4 6 -13 10 -45 10
-32 0 -49 -4 -45 -10z"/>
<path d="M4510 1640 c0 -5 5 -10 10 -10 6 0 10 5 10 10 0 6 -4 10 -10 10 -5 0
-10 -4 -10 -10z"/>
<path d="M4555 1630 c-3 -6 1 -7 9 -4 18 7 21 14 7 14 -6 0 -13 -4 -16 -10z"/>
<path d="M4695 1600 c-3 -5 -1 -10 4 -10 6 0 11 5 11 10 0 6 -2 10 -4 10 -3 0
-8 -4 -11 -10z"/>
<path d="M138 1588 c9 -9 15 -9 24 0 9 9 7 12 -12 12 -19 0 -21 -3 -12 -12z"/>
<path d="M4227 1499 c7 -7 29 -13 50 -15 l37 -3 -28 14 c-35 18 -76 21 -59 4z"/>
<path d="M4377 1488 c-44 -12 -44 -33 -1 -33 16 -1 38 -5 48 -10 13 -6 21 -5
24 3 3 9 9 9 24 1 20 -11 20 -11 2 20 -20 33 -33 36 -97 19z"/>
<path d="M451 1476 c-10 -12 -8 -13 8 -9 12 3 18 9 15 14 -7 12 -10 11 -23 -5z"/>
<path d="M195 1330 c3 -5 10 -10 16 -10 5 0 9 5 9 10 0 6 -7 10 -16 10 -8 0
-12 -4 -9 -10z"/>
<path d="M4870 1310 c0 -5 10 -10 23 -10 18 0 19 2 7 10 -19 13 -30 13 -30 0z"/>
<path d="M367 1293 c-4 -3 -7 -11 -7 -17 0 -6 5 -5 12 2 6 6 9 14 7 17 -3 3
-9 2 -12 -2z"/>
<path d="M90 1274 c0 -8 5 -12 10 -9 6 3 10 10 10 16 0 5 -4 9 -10 9 -5 0 -10
-7 -10 -16z"/>
<path d="M230 1265 c0 -17 35 -21 45 -5 3 6 -1 7 -9 4 -9 -3 -16 -1 -16 5 0 6
-4 11 -10 11 -5 0 -10 -7 -10 -15z"/>
<path d="M478 1253 c-16 -4 -34 -33 -20 -33 12 0 48 28 42 32 -3 3 -12 3 -22
1z"/>
<path d="M0 1206 c0 -9 7 -12 20 -9 26 7 26 23 0 23 -11 0 -20 -6 -20 -14z"/>
<path d="M1032 1200 c0 -14 2 -19 5 -12 2 6 2 18 0 25 -3 6 -5 1 -5 -13z"/>
<path d="M341 1174 c0 -11 3 -14 6 -6 3 7 2 16 -1 19 -3 4 -6 -2 -5 -13z"/>
<path d="M270 1150 c0 -5 5 -10 10 -10 6 0 10 5 10 10 0 6 -4 10 -10 10 -5 0
-10 -4 -10 -10z"/>
<path d="M570 1140 c0 -5 -6 -7 -13 -4 -14 5 -55 -21 -46 -30 10 -10 69 15 69
30 0 8 -2 14 -5 14 -3 0 -5 -4 -5 -10z"/>
<path d="M871 1131 c-12 -8 -12 -11 1 -25 18 -17 28 -11 28 16 0 20 -8 22 -29
9z"/>
<path d="M1022 1112 c-6 -15 -22 -39 -34 -52 l-22 -23 27 7 c27 6 37 -6 16
-19 -6 -4 -8 -14 -5 -22 5 -12 1 -14 -19 -11 -16 4 -24 1 -22 -6 2 -6 13 -12
25 -14 27 -4 28 -29 5 -71 -18 -31 -63 -44 -63 -18 0 8 -3 8 -9 -2 -9 -13 -36
-12 -74 4 -13 6 -16 4 -11 -9 4 -11 0 -16 -14 -16 -12 0 -24 5 -27 10 -8 13
-42 13 -51 -1 -4 -8 1 -9 16 -4 16 5 20 4 15 -5 -4 -6 -25 -11 -49 -9 -22 1
-48 -1 -56 -4 -8 -4 -118 -20 -245 -37 -126 -17 -252 -35 -280 -40 -27 -5 -71
-11 -97 -15 -47 -6 -48 -7 -48 -41 0 -33 1 -34 39 -34 49 0 73 -9 64 -23 -4
-7 4 -3 18 8 17 13 39 19 65 18 43 -1 84 -9 92 -18 9 -9 31 16 26 29 -5 14 43
26 107 26 19 0 39 4 45 9 11 11 54 -4 54 -19 0 -11 -11 -13 -47 -11 -11 1 -24
-2 -27 -8 -4 -6 -14 -7 -23 -4 -11 4 -14 3 -9 -5 10 -17 101 -15 115 2 6 7 8
21 5 31 -6 14 -3 16 17 10 16 -4 20 -3 10 3 -28 20 9 22 51 3 42 -19 58 -19
58 -1 0 5 -10 7 -22 5 -27 -6 -12 10 20 20 16 5 22 2 22 -9 0 -8 -4 -18 -10
-21 -5 -3 -10 -14 -10 -23 1 -15 2 -15 13 -2 7 8 26 16 42 18 17 2 40 10 53
18 12 8 22 10 22 4 0 -5 -4 -10 -10 -10 -5 0 -10 -4 -10 -9 0 -5 16 -9 35 -9
19 0 35 4 35 9 0 5 5 9 11 9 6 0 8 -9 4 -20 -4 -11 -2 -20 4 -20 6 0 11 12 11
26 0 18 6 28 21 31 21 6 21 6 -2 24 -13 10 -20 21 -16 26 5 4 11 3 15 -3 15
-22 92 -41 92 -23 0 29 15 -6 17 -39 8 -137 9 -212 1 -212 -5 0 -3 -7 5 -15 9
-8 17 -20 20 -27 2 -7 8 -10 12 -6 4 3 2 39 -5 79 -14 93 -14 316 1 440 6 52
9 108 7 123 l-3 27 -13 -29z m-227 -332 c3 -5 1 -10 -4 -10 -6 0 -11 5 -11 10
0 6 2 10 4 10 3 0 8 -4 11 -10z m-35 -20 c0 -5 -12 -10 -27 -9 l-28 1 25 8
c14 4 26 8 28 9 1 1 2 -3 2 -9z m-413 -16 c-3 -3 -12 -4 -19 -1 -8 3 -5 6 6 6
11 1 17 -2 13 -5z"/>
<path d="M77 1113 c-13 -13 -20 -14 -29 -5 -17 17 -48 15 -48 -3 0 -12 14 -15
63 -16 52 0 58 -2 40 -11 -13 -6 -23 -14 -23 -17 0 -14 49 -27 100 -25 30 1
93 -7 140 -18 113 -26 187 -30 194 -12 6 16 56 19 56 4 0 -5 -6 -11 -12 -12
-7 0 -17 -2 -23 -3 -5 -2 -14 -3 -19 -4 -5 0 -3 -8 4 -16 10 -13 9 -15 -8 -15
-12 0 -24 5 -27 10 -12 19 -33 11 -28 -10 4 -13 0 -20 -10 -20 -8 0 -20 -6
-26 -14 -10 -11 -8 -17 6 -25 16 -9 16 -12 3 -21 -12 -8 -9 -10 13 -10 15 0
27 5 27 10 0 6 6 10 13 9 6 -1 24 3 38 10 19 10 39 11 71 4 26 -6 54 -6 68 -1
13 5 30 6 37 4 17 -7 17 -27 1 -25 -25 3 -48 -1 -48 -9 0 -5 14 -7 31 -6 38 3
55 24 34 40 -8 6 -15 18 -15 27 0 14 5 14 35 -4 30 -18 42 -20 89 -12 41 7 53
7 49 -2 -2 -7 3 -15 12 -19 21 -8 28 14 15 49 -8 20 -14 25 -22 17 -17 -17
-62 7 -47 25 9 10 7 13 -9 13 -15 0 -19 -5 -15 -20 6 -21 -11 -28 -22 -10 -5
8 -11 7 -21 -1 -11 -9 -14 -8 -14 4 0 8 10 17 22 21 18 4 20 8 10 18 -9 9 -15
9 -24 0 -17 -17 -33 -15 -18 3 16 19 5 34 -20 28 -11 -3 -20 0 -20 6 0 6 -11
11 -25 11 -14 0 -25 5 -25 10 0 7 -6 7 -19 0 -16 -8 -22 -6 -29 6 -8 14 -10
14 -15 1 -6 -16 -41 -13 -65 6 -8 6 -72 12 -143 13 -72 2 -146 8 -165 14 -20
7 -53 9 -74 6 -23 -3 -40 -2 -42 4 -2 6 -11 3 -21 -7z"/>
<path d="M955 1106 c-16 -13 -27 -28 -23 -32 4 -4 15 -1 25 7 15 12 16 12 10
-3 -4 -12 -2 -15 9 -11 9 3 13 16 12 34 -1 16 -2 29 -3 29 0 0 -13 -11 -30
-24z"/>
<path d="M797 1083 c-13 -12 -7 -25 6 -14 8 6 17 8 20 4 4 -3 7 -1 7 5 0 13
-22 16 -33 5z"/>
<path d="M0 1019 c0 -5 5 -7 10 -4 5 3 10 8 10 11 0 2 -4 4 -10 4 -5 0 -10 -5
-10 -11z"/>
<path d="M45 1020 c-7 -12 -8 -12 78 -10 65 1 89 -12 47 -25 -11 -3 -20 -11
-20 -17 0 -7 -14 -8 -38 -5 -30 5 -40 3 -49 -12 -7 -11 -23 -21 -35 -23 -22
-3 -23 -8 -26 -86 -3 -77 -2 -82 15 -74 10 6 30 15 45 22 15 7 25 17 22 22 -7
11 3 10 29 -4 51 -28 175 -17 169 15 -3 19 32 70 41 61 14 -14 42 16 42 45 0
26 -4 31 -33 36 -24 4 -32 10 -28 21 3 9 -1 14 -13 14 -10 0 -21 3 -24 7 -4 3
-42 8 -85 10 -42 1 -89 5 -104 8 -15 2 -30 0 -33 -5z m201 -118 c-3 -2 -14 2
-25 10 -12 8 -18 18 -14 21 3 4 15 0 25 -10 10 -9 16 -18 14 -21z m104 28 c0
-5 -2 -10 -4 -10 -3 0 -8 5 -11 10 -3 6 -1 10 4 10 6 0 11 -4 11 -10z"/>
<path d="M375 830 c-3 -5 -2 -10 4 -10 5 0 13 5 16 10 3 6 2 10 -4 10 -5 0
-13 -4 -16 -10z"/>
<path d="M335 820 c-3 -5 -1 -10 4 -10 6 0 11 5 11 10 0 6 -2 10 -4 10 -3 0
-8 -4 -11 -10z"/>
<path d="M4210 789 c0 -5 5 -7 10 -4 6 3 10 8 10 11 0 2 -4 4 -10 4 -5 0 -10
-5 -10 -11z"/>
<path d="M930 734 c0 -8 5 -12 10 -9 6 3 10 10 10 16 0 5 -4 9 -10 9 -5 0 -10
-7 -10 -16z"/>
<path d="M4406 742 c-2 -4 4 -9 15 -9 11 -1 17 2 14 8 -7 11 -22 12 -29 1z"/>
<path d="M4290 723 c0 -9 6 -13 14 -10 8 3 17 1 19 -6 2 -7 8 -9 12 -4 10 9
-9 30 -30 33 -8 1 -15 -5 -15 -13z"/>
<path d="M321 671 c-10 -6 -10 -10 -1 -16 13 -8 24 -1 19 14 -3 6 -10 7 -18 2z"/>
<path d="M248 645 c5 -11 9 -32 8 -47 -1 -22 3 -28 20 -28 26 0 34 8 27 25 -2
8 -11 11 -19 8 -8 -3 -14 -1 -14 5 0 6 6 13 13 15 9 4 8 6 -2 6 -8 1 -20 9
-28 19 -13 16 -13 16 -5 -3z"/>
<path d="M170 640 c0 -12 28 -21 35 -11 2 5 -4 11 -15 14 -11 3 -20 2 -20 -3z"/>
<path d="M4648 623 c7 -3 16 -2 19 1 4 3 -2 6 -13 5 -11 0 -14 -3 -6 -6z"/>
<path d="M395 607 c-4 -10 -17 -22 -29 -27 -20 -7 -20 -9 -3 -15 23 -10 51 16
45 41 -5 18 -5 18 -13 1z"/>
<path d="M1215 590 c-3 -5 -2 -10 4 -10 5 0 13 5 16 10 3 6 2 10 -4 10 -5 0
-13 -4 -16 -10z"/>
<path d="M460 570 c-12 -8 -12 -10 5 -10 11 0 27 5 35 10 12 8 12 10 -5 10
-11 0 -27 -5 -35 -10z"/>
<path d="M331 483 c0 -5 4 -17 9 -28 8 -18 9 -17 9 8 1 15 -3 27 -9 27 -5 0
-10 -3 -9 -7z"/>
<path d="M4450 461 c0 -5 6 -11 13 -14 8 -3 14 1 14 9 0 8 -6 14 -14 14 -7 0
-13 -4 -13 -9z"/>
<path d="M386 451 c-3 -5 6 -12 20 -15 29 -8 39 -3 29 13 -8 13 -42 14 -49 2z"/>
<path d="M627 442 c-20 -22 -22 -42 -5 -42 6 0 8 3 5 7 -4 3 0 15 10 25 9 10
14 20 11 23 -3 3 -12 -3 -21 -13z"/>
<path d="M703 434 c-3 -8 -1 -20 5 -26 7 -7 10 -2 9 16 -2 30 -5 32 -14 10z"/>
<path d="M1040 435 c-1 -11 -1 -31 -1 -46 1 -15 -9 -38 -28 -59 -16 -19 -28
-37 -25 -40 3 -2 9 2 13 9 6 9 11 10 15 2 8 -12 -16 -41 -33 -41 -5 0 -16 -9
-24 -21 -18 -25 -33 -8 -18 19 7 13 7 22 -1 30 -9 9 -8 12 6 12 18 0 18 24 0
26 -5 0 -17 4 -26 8 -21 9 -61 -11 -53 -27 4 -7 0 -4 -8 6 -14 17 -67 34 -67
22 0 -4 5 -15 10 -26 11 -20 -3 -28 -15 -9 -4 6 -11 7 -17 4 -6 -4 -8 2 -3 17
3 13 3 20 -2 14 -4 -5 -17 -12 -28 -13 -25 -5 -36 -22 -29 -44 6 -20 -16 -58
-33 -58 -6 0 -15 -4 -18 -10 -3 -6 1 -7 9 -4 9 4 18 -1 22 -10 10 -26 41 -18
68 17 l26 32 30 -17 c17 -10 28 -13 25 -8 -4 6 10 10 34 10 22 0 43 -5 47 -11
3 -6 19 -9 35 -5 17 3 29 1 33 -7 3 -9 5 -9 5 1 1 6 8 12 16 12 9 0 20 11 25
25 5 14 17 25 26 25 9 0 13 -5 10 -12 -3 -7 -9 -21 -12 -31 -4 -9 -13 -16 -22
-15 -8 2 -17 -3 -19 -9 -3 -8 5 -13 21 -13 16 0 26 6 26 15 0 30 17 14 18 -17
0 -17 6 -34 12 -38 9 -6 9 -9 0 -15 -10 -6 -9 -11 4 -21 24 -17 10 -37 -20
-31 -13 2 -24 0 -24 -5 0 -6 -6 -8 -13 -5 -12 4 -85 -49 -76 -57 2 -2 15 -7
28 -11 20 -6 23 -4 17 10 -4 12 -2 16 8 12 8 -3 22 3 32 14 19 22 44 25 44 7
0 -10 3 -9 9 1 10 16 31 6 31 -15 0 -8 -3 -13 -7 -11 -5 3 -14 -1 -21 -9 -11
-12 -8 -14 16 -14 44 0 42 16 -48 355 -26 99 -28 105 -30 80z m20 -139 c0 -11
-19 -15 -25 -6 -3 5 1 10 9 10 9 0 16 -2 16 -4z m-314 -22 c-3 -9 -6 -18 -6
-20 0 -2 -4 -4 -9 -4 -5 0 -7 9 -4 20 3 11 10 20 15 20 6 0 7 -7 4 -16z m117
1 c-3 -9 -8 -14 -10 -11 -3 3 -2 9 2 15 9 16 15 13 8 -4z m-143 -49 c0 -3 -4
-8 -10 -11 -5 -3 -10 -1 -10 4 0 6 5 11 10 11 6 0 10 -2 10 -4z"/>
<path d="M5000 422 c0 -12 19 -26 26 -19 2 2 -2 10 -11 17 -9 8 -15 8 -15 2z"/>
<path d="M437 413 c-4 -3 -7 -13 -7 -22 1 -13 3 -13 11 2 11 19 8 33 -4 20z"/>
<path d="M4955 410 c-4 -6 3 -10 14 -10 25 0 27 6 6 13 -8 4 -17 2 -20 -3z"/>
<path d="M375 361 c-6 -11 9 -23 19 -14 9 9 7 23 -3 23 -6 0 -12 -4 -16 -9z"/>
<path d="M430 359 c0 -5 5 -7 10 -4 6 3 10 8 10 11 0 2 -4 4 -10 4 -5 0 -10
-5 -10 -11z"/>
<path d="M80 349 c0 -5 5 -7 10 -4 6 3 10 8 10 11 0 2 -4 4 -10 4 -5 0 -10 -5
-10 -11z"/>
<path d="M270 351 c0 -4 -10 -7 -21 -8 -12 -1 -26 -6 -31 -11 -12 -12 53 -9
76 4 17 11 17 11 -3 17 -11 3 -21 2 -21 -2z"/>
<path d="M585 340 c3 -5 8 -10 11 -10 2 0 4 5 4 10 0 6 -5 10 -11 10 -5 0 -7
-4 -4 -10z"/>
<path d="M627 326 c-19 -15 -73 -16 -94 -3 -7 4 -24 0 -38 -9 -21 -14 -30 -15
-52 -5 -14 6 -28 9 -31 7 -2 -3 8 -10 24 -16 26 -10 27 -12 11 -21 -13 -8 -22
-7 -33 1 -10 9 -18 9 -27 1 -8 -6 -37 -9 -66 -7 -28 1 -54 -1 -57 -6 -3 -4
-17 -8 -31 -8 -22 0 -24 -3 -19 -25 6 -23 5 -24 -20 -15 -34 13 -34 13 -34 -9
0 -11 -9 -22 -19 -26 -22 -7 -36 -45 -17 -45 7 0 19 11 26 25 14 26 30 29 38
7 2 -7 -2 -12 -8 -12 -7 0 -20 -10 -29 -22 -22 -27 -56 -18 -48 12 7 26 -9 35
-30 18 -13 -10 -17 -10 -20 -1 -3 9 -10 10 -22 3 -10 -5 -21 -6 -25 -3 -3 3
-6 -19 -6 -50 0 -32 3 -56 8 -56 4 1 9 0 12 -1 22 -9 60 -4 60 8 0 9 6 12 18
7 42 -16 74 -16 106 -1 36 17 52 33 43 42 -3 3 -15 0 -28 -6 -19 -11 -21 -10
-16 4 8 19 -18 23 -27 4 -3 -7 -5 -4 -3 6 1 11 7 19 12 19 6 0 16 7 23 16 11
14 12 13 7 -6 -5 -19 -2 -23 14 -23 12 0 21 4 21 8 0 4 29 9 65 9 67 2 83 -9
40 -29 -18 -8 -28 -8 -38 0 -7 6 -18 7 -26 3 -18 -11 22 -25 64 -22 40 2 49
14 34 42 -9 17 -9 24 0 27 6 2 11 10 11 18 0 8 6 14 14 14 8 0 18 9 21 20 3
11 15 25 27 31 18 9 19 8 13 -10 -3 -12 -2 -21 4 -21 5 0 17 -7 26 -16 13 -13
19 -14 28 -4 9 10 9 14 0 17 -10 4 -10 7 0 18 9 9 16 10 25 2 10 -7 17 -4 28
12 11 15 22 20 36 15 17 -5 19 -3 13 16 -5 15 0 27 16 41 26 22 5 26 -24 5z
m-287 -85 c0 -5 -7 -12 -16 -15 -14 -5 -15 -4 -4 9 14 17 20 19 20 6z m70 -11
c0 -5 -2 -10 -4 -10 -3 0 -8 5 -11 10 -3 6 -1 10 4 10 6 0 11 -4 11 -10z m-24
-39 c-13 -20 -26 -11 -26 16 0 25 1 26 16 11 9 -9 13 -21 10 -27z m-41 19 c3
-5 -1 -10 -10 -10 -9 0 -13 5 -10 10 3 6 8 10 10 10 2 0 7 -4 10 -10z m-100
-19 c3 -5 1 -12 -5 -16 -5 -3 -10 1 -10 9 0 18 6 21 15 7z m90 -11 c3 -5 -1
-10 -9 -10 -9 0 -16 5 -16 10 0 6 4 10 9 10 6 0 13 -4 16 -10z m-255 -78 c0
-13 -12 -22 -22 -16 -10 6 -1 24 13 24 5 0 9 -4 9 -8z m30 -2 c0 -5 -4 -10
-10 -10 -5 0 -10 5 -10 10 0 6 5 10 10 10 6 0 10 -4 10 -10z"/>
<path d="M366 313 c-6 -14 -5 -15 5 -6 7 7 10 15 7 18 -3 3 -9 -2 -12 -12z"/>
<path d="M4336 314 c-9 -9 -14 -19 -11 -22 3 -3 13 2 22 11 9 9 14 19 11 22
-3 3 -13 -2 -22 -11z"/>
<path d="M122 304 c9 -9 21 -13 27 -10 20 13 11 26 -16 26 -25 0 -26 -1 -11
-16z"/>
<path d="M21 295 c-1 -12 -6 -26 -13 -33 -16 -16 -5 -24 14 -9 11 8 13 19 8
37 -7 21 -8 22 -9 5z"/>
<path d="M170 294 c0 -8 5 -12 10 -9 6 4 8 11 5 16 -9 14 -15 11 -15 -7z"/>
<path d="M50 269 c0 -5 5 -7 10 -4 6 3 10 8 10 11 0 2 -4 4 -10 4 -5 0 -10 -5
-10 -11z"/>
<path d="M140 260 c0 -5 5 -10 10 -10 6 0 10 5 10 10 0 6 -4 10 -10 10 -5 0
-10 -4 -10 -10z"/>
<path d="M588 203 c7 -3 16 -2 19 1 4 3 -2 6 -13 5 -11 0 -14 -3 -6 -6z"/>
<path d="M970 140 c0 -5 5 -10 10 -10 6 0 10 5 10 10 0 6 -4 10 -10 10 -5 0
-10 -4 -10 -10z"/>
<path d="M4415 140 c-3 -5 3 -10 15 -10 12 0 18 5 15 10 -3 6 -10 10 -15 10
-5 0 -12 -4 -15 -10z"/>
<path d="M4785 130 c-3 -5 1 -10 9 -10 9 0 16 5 16 10 0 6 -4 10 -9 10 -6 0
-13 -4 -16 -10z"/>
<path d="M4756 116 c3 -9 13 -16 22 -16 8 0 13 1 11 3 -2 1 -12 9 -22 16 -15
12 -17 12 -11 -3z"/>
<path d="M925 89 c-11 -16 -1 -19 13 -3 7 8 8 14 3 14 -5 0 -13 -5 -16 -11z"/>
<path d="M4285 90 c3 -5 11 -10 16 -10 6 0 7 5 4 10 -3 6 -11 10 -16 10 -6 0
-7 -4 -4 -10z"/>
<path d="M4322 89 c2 -7 10 -15 17 -17 8 -3 12 1 9 9 -2 7 -10 15 -17 17 -8 3
-12 -1 -9 -9z"/>
<path d="M515 79 c-4 -6 -13 -8 -19 -6 -7 3 -18 -4 -24 -14 -15 -24 -16 -24
44 5 35 18 43 25 27 25 -12 1 -25 -4 -28 -10z"/>
<path d="M4570 80 c0 -5 5 -10 10 -10 6 0 10 5 10 10 0 6 -4 10 -10 10 -5 0
-10 -4 -10 -10z"/>
<path d="M302 62 c-13 -4 -24 -11 -25 -17 -1 -5 -10 -9 -19 -8 -11 2 -15 -2
-12 -12 5 -11 11 -12 24 -5 10 5 32 7 48 4 35 -7 50 9 28 31 -8 8 -16 15 -18
14 -2 -1 -13 -4 -26 -7z"/>
<path d="M180 39 c0 -5 5 -7 10 -4 6 3 10 8 10 11 0 2 -4 4 -10 4 -5 0 -10 -5
-10 -11z"/>
<path d="M580 40 c-13 -8 -12 -10 3 -10 9 0 17 5 17 10 0 12 -1 12 -20 0z"/>
<path d="M374 33 c11 -11 46 -14 46 -3 0 6 -12 10 -27 10 -14 0 -23 -3 -19 -7z"/>
<path d="M506 24 c-3 -9 -5 -19 -3 -21 5 -5 57 15 57 21 0 3 -7 3 -16 -1 -9
-3 -19 0 -24 6 -5 9 -9 8 -14 -5z"/>
<path d="M672 20 c7 -11 16 -20 21 -20 4 0 3 9 -3 20 -6 11 -15 20 -20 20 -6
0 -5 -9 2 -20z"/>
<path d="M1060 30 c0 -5 5 -10 11 -10 5 0 7 5 4 10 -3 6 -8 10 -11 10 -2 0 -4
-4 -4 -10z"/>
<path d="M4492 18 c3 -7 15 -15 28 -16 21 -4 22 -2 7 12 -19 19 -40 21 -35 4z"/>
<path d="M45 10 c-3 -5 -1 -10 4 -10 6 0 11 5 11 10 0 6 -2 10 -4 10 -3 0 -8
-4 -11 -10z"/>
<path d="M460 10 c0 -5 4 -10 9 -10 6 0 13 5 16 10 3 6 -1 10 -9 10 -9 0 -16
-4 -16 -10z"/>
</g>
</svg>
